<?xml version="1.0" encoding="utf-8"?>
<!-- Generator: Adobe Illustrator 16.0.0, SVG Export Plug-In . SVG Version: 6.00 Build 0)  -->
<!DOCTYPE svg PUBLIC "-//W3C//DTD SVG 1.1//EN" "http://www.w3.org/Graphics/SVG/1.1/DTD/svg11.dtd">
<svg version="1.1" id="Capa_1" xmlns="http://www.w3.org/2000/svg" xmlns:xlink="http://www.w3.org/1999/xlink" x="0px" y="0px"
	 width="625px" height="625px" viewBox="0.996 112.265 625 625" enable-background="new 0.996 112.265 625 625"
	 xml:space="preserve">
<g>
	<path fill="#999999" d="M487.975,476.082c-67.913,0-123.161,55.248-123.161,123.162c0,67.912,55.248,123.16,123.161,123.16
		s123.161-55.248,123.161-123.16C611.136,531.33,555.888,476.082,487.975,476.082z M487.975,701.879
		c-56.593,0-102.635-46.043-102.635-102.635c0-56.594,46.042-102.635,102.635-102.635S590.61,542.65,590.61,599.244
		C590.61,655.836,544.568,701.879,487.975,701.879z"/>
	<path fill="#999999" d="M549.556,588.98h-51.317v-51.318c0-5.676-4.588-10.262-10.264-10.262s-10.264,4.586-10.264,10.262v61.582
		c0,5.676,4.588,10.264,10.264,10.264h61.581c5.676,0,10.264-4.588,10.264-10.264S555.232,588.98,549.556,588.98z"/>
	<path fill="#999999" d="M354.55,691.615H36.383V291.34h492.646v133.426c0,5.676,4.588,10.264,10.264,10.264
		s10.264-4.588,10.264-10.264V281.077V178.442c0-5.676-4.588-10.263-10.264-10.263h-51.317v-30.791
		c0-5.676-4.588-10.264-10.264-10.264h-71.844c-5.676,0-10.264,4.588-10.264,10.264v30.791H169.808v-30.791
		c0-5.676-4.587-10.264-10.263-10.264H87.7c-5.676,0-10.264,4.588-10.264,10.264v30.791H26.12c-5.676,0-10.264,4.587-10.264,10.263
		v102.635v420.802c0,5.676,4.588,10.262,10.264,10.262h328.43c5.676,0,10.264-4.586,10.264-10.262S360.226,691.615,354.55,691.615z
		 M416.131,147.652h51.317v30.79v30.791h-51.317v-30.791V147.652z M97.964,147.652h51.317v30.79v30.791H97.964v-30.791V147.652z
		 M36.383,188.706h41.054v30.79c0,5.676,4.588,10.264,10.264,10.264h71.845c5.675,0,10.263-4.588,10.263-10.264v-30.79h225.796
		v30.79c0,5.676,4.588,10.264,10.264,10.264h71.844c5.676,0,10.264-4.588,10.264-10.264v-30.79h41.054v82.107H36.383V188.706z"/>
</g>
</svg>
