<?xml version="1.0" encoding="utf-8"?>
<!-- Generator: Adobe Illustrator 16.0.0, SVG Export Plug-In . SVG Version: 6.00 Build 0)  -->
<!DOCTYPE svg PUBLIC "-//W3C//DTD SVG 1.1//EN" "http://www.w3.org/Graphics/SVG/1.1/DTD/svg11.dtd">
<svg version="1.1" id="Layer_1" xmlns="http://www.w3.org/2000/svg" xmlns:xlink="http://www.w3.org/1999/xlink" x="0px" y="0px"
	 width="81px" height="81px" viewBox="0 0 81 81" enable-background="new 0 0 81 81" xml:space="preserve">
<path fill="#6B49A8" d="M80.5,40.503c0,22.092-17.908,39.999-39.998,39.999C18.411,80.502,0.5,62.595,0.5,40.503
	c0-22.094,17.911-40.005,40.002-40.005C62.592,0.498,80.5,18.409,80.5,40.503z"/>
<g opacity="0.8">
	<path fill="#FFFFFF" d="M40.498,38.062c4.448,0,8.055-4.378,8.055-9.782c0-5.397-1.186-9.777-8.055-9.777
		c-6.868,0-8.051,4.38-8.051,9.777C32.447,33.684,36.054,38.062,40.498,38.062z"/>
	<path fill="#FFFFFF" d="M25.29,52.998C25.287,52.669,25.287,52.905,25.29,52.998L25.29,52.998z"/>
	<path fill="#FFFFFF" d="M55.71,53.256C55.713,53.167,55.713,52.628,55.71,53.256L55.71,53.256z"/>
	<path fill="#FFFFFF" d="M55.692,52.604c-0.146-9.411-1.377-12.093-10.784-13.791c0,0-1.322,1.688-4.41,1.688
		c-3.084,0-4.406-1.688-4.406-1.688c-9.304,1.681-10.609,4.321-10.781,13.485c-0.01,0.748-0.021,0.786-0.021,0.7
		c0,0.161,0,0.464,0,0.99c0,0,2.239,4.512,15.208,4.512c12.973,0,15.209-4.512,15.209-4.512c0-0.338,0.003-0.575,0.003-0.732
		C55.707,53.307,55.703,53.203,55.692,52.604z"/>
</g>
</svg>
