<?xml version="1.0" encoding="utf-8"?>
<!-- Generator: Adobe Illustrator 16.0.0, SVG Export Plug-In . SVG Version: 6.00 Build 0)  -->
<!DOCTYPE svg PUBLIC "-//W3C//DTD SVG 1.1//EN" "http://www.w3.org/Graphics/SVG/1.1/DTD/svg11.dtd">
<svg version="1.1" id="Layer_1" xmlns="http://www.w3.org/2000/svg" xmlns:xlink="http://www.w3.org/1999/xlink" x="0px" y="0px"
	 width="50px" height="50px" viewBox="272.64 395.445 50 50" enable-background="new 272.64 395.445 50 50" xml:space="preserve">
<g>
	<g>
		<path fill-rule="evenodd" clip-rule="evenodd" fill="#A6A8AB" d="M288.07,414.422c0-0.994-0.007-1.986,0.005-2.979
			c0.003-0.221-0.064-0.265-0.27-0.262c-0.671,0.01-1.343-0.007-2.015,0c-0.176,0.002-0.226-0.049-0.223-0.223
			c0.011-0.529,0.014-1.061-0.001-1.59c-0.006-0.201,0.072-0.227,0.242-0.22c0.51,0.021,1.02,0.023,1.529,0.045
			c0.164,0.006,0.21-0.048,0.206-0.208c-0.01-0.388-0.012-0.776,0.001-1.164c0.006-0.182-0.059-0.217-0.227-0.218
			c-0.519-0.003-1.038-0.032-1.558-0.039c-0.148-0.002-0.194-0.042-0.191-0.192c0.008-0.548,0.007-1.097,0-1.645
			c-0.001-0.15,0.042-0.178,0.193-0.178c1.514,0.003,3.026-0.009,4.54-0.007c0.206,0,0.273-0.046,0.271-0.266
			c-0.012-1.144,0.004-2.289-0.012-3.433c-0.004-0.269,0.064-0.359,0.334-0.359c1.389-0.006,2.776-0.084,4.162-0.175
			c0.914-0.059,1.828-0.123,2.742-0.202c0.191-0.017,0.247,0.018,0.245,0.212c-0.009,0.644-0.011,1.286,0.001,1.929
			c0.002,0.175-0.054,0.231-0.22,0.238c-0.491,0.021-0.98,0.062-1.471,0.078c-0.153,0.004-0.192,0.052-0.19,0.197
			c0.008,0.426,0.008,0.852,0,1.277c-0.003,0.154,0.048,0.186,0.196,0.181c1.303-0.041,2.606-0.091,3.907-0.173
			c0.189-0.013,0.25-0.075,0.249-0.272c-0.011-1.21,0.001-2.421-0.012-3.632c-0.002-0.219,0.043-0.31,0.276-0.333
			c1.871-0.189,3.732-0.453,5.589-0.75c0.298-0.047,0.597-0.094,0.894-0.15c0.123-0.023,0.167,0.002,0.166,0.136
			c-0.006,0.633-0.006,1.268,0.001,1.901c0.001,0.128-0.057,0.156-0.165,0.171c-0.496,0.068-0.989,0.153-1.487,0.21
			c-0.202,0.023-0.301,0.069-0.288,0.303c0.023,0.386,0.022,0.776,0.002,1.162c-0.014,0.234,0.071,0.267,0.273,0.237
			c0.477-0.073,0.956-0.122,1.433-0.195c0.159-0.025,0.267-0.03,0.228,0.175c-0.042,0.229,0.067,0.259,0.267,0.243
			c0.961-0.08,1.924-0.175,2.886-0.052c1.359,0.174,2.646,0.541,3.695,1.489c0.39,0.352,0.717,0.756,0.955,1.223
			c0.441,0.863,0.675,1.79,0.756,2.753c0.113,1.357,0.076,2.706-0.381,4.004c-0.491,1.398-1.334,2.551-2.502,3.468
			c-1.045,0.82-2.269,1.266-3.497,1.703c-0.238,0.084-0.57,0.085-0.689,0.28c-0.11,0.179-0.032,0.477-0.03,0.723
			c0.001,0.208-0.061,0.46,0.036,0.608c0.091,0.14,0.365,0.086,0.561,0.121c1.062,0.185,2.107,0.429,3.11,0.836
			c0.179,0.073,0.261,0.154,0.253,0.366c-0.02,0.568,0.003,1.136-0.011,1.703c-0.006,0.196,0.049,0.257,0.245,0.263
			c0.812,0.024,1.623,0.073,2.436,0.093c0.188,0.004,0.284,0.074,0.379,0.22c0.722,1.11,1.084,2.34,1.22,3.645
			c0.161,1.545,0.106,3.077-0.326,4.579c-0.652,2.266-2.208,3.571-4.438,4.167c-1.242,0.332-2.5,0.354-3.77,0.261
			c-0.301-0.021-0.605-0.025-0.903-0.069c-0.212-0.031-0.254,0.033-0.253,0.231c0.009,1.229,0.004,2.46,0.004,3.688
			c0,0.433-0.001,0.44-0.424,0.37c-2.079-0.342-4.163-0.641-6.259-0.858c-0.196-0.02-0.239-0.098-0.238-0.284
			c0.01-1.22-0.002-2.44,0.012-3.66c0.002-0.216-0.066-0.271-0.263-0.283c-0.819-0.055-1.64-0.115-2.458-0.188
			c-0.21-0.019-0.277,0.028-0.273,0.251c0.016,0.681-0.003,1.362,0.012,2.042c0.004,0.217-0.05,0.277-0.268,0.25
			c-0.478-0.058-0.96-0.08-1.438-0.144c-0.211-0.027-0.235,0.055-0.232,0.228c0.008,0.368-0.006,0.737,0.006,1.106
			c0.007,0.184-0.063,0.219-0.231,0.207c-1.518-0.102-3.037-0.178-4.559-0.201c-0.2-0.003-0.251-0.058-0.25-0.253
			c0.009-1.164,0.002-2.327,0.007-3.491c0.001-0.193-0.007-0.303-0.262-0.301c-0.85,0.007-1.701-0.026-2.551-0.021
			c-0.221,0-0.27-0.066-0.259-0.271c0.016-0.349-0.005-0.7,0.007-1.05c0.006-0.179-0.038-0.249-0.232-0.241
			c-0.491,0.021-0.984,0.008-1.474,0.032c-0.174,0.008-0.231-0.018-0.23-0.201c0.006-1.221,0.007-2.44-0.001-3.661
			c-0.001-0.194,0.064-0.24,0.244-0.237c0.663,0.009,1.325-0.008,1.987,0.009c0.232,0.006,0.276-0.071,0.275-0.287
			c-0.007-1.947,0-3.896-0.01-5.846c0-0.245,0.044-0.347,0.318-0.331c0.442,0.026,0.89-0.007,1.333,0.013
			c0.246,0.012,0.303-0.074,0.29-0.304c-0.019-0.339-0.016-0.681,0-1.021c0.009-0.193-0.041-0.265-0.247-0.257
			c-0.482,0.015-0.965-0.002-1.447,0.008c-0.175,0.003-0.249-0.031-0.246-0.23c0.013-0.67,0.011-1.342,0.001-2.014
			c-0.003-0.175,0.048-0.226,0.222-0.222c0.502,0.011,1.003-0.001,1.505,0.006c0.156,0.003,0.216-0.042,0.21-0.207
			c-0.011-0.388-0.011-0.776,0-1.164c0.005-0.165-0.052-0.209-0.21-0.206c-0.492,0.008-0.983-0.006-1.475,0.007
			c-0.199,0.006-0.254-0.052-0.253-0.251C288.075,416.409,288.07,415.415,288.07,414.422z M296.716,426.865
			c0,1.183,0.008,2.365-0.006,3.547c-0.002,0.233,0.082,0.297,0.288,0.294c0.188-0.003,0.377,0.005,0.566,0.013
			c1.926,0.065,3.847,0.266,5.777,0.23c0.919-0.016,1.832-0.079,2.716-0.355c0.745-0.234,1.278-0.705,1.559-1.449
			c0.283-0.756,0.289-1.537,0.205-2.32c-0.15-1.405-0.903-2.368-2.199-2.915c-0.88-0.372-1.809-0.54-2.751-0.624
			c-1.961-0.174-3.927-0.183-5.892-0.21c-0.215-0.003-0.269,0.061-0.267,0.271C296.722,424.52,296.716,425.692,296.716,426.865z
			 M296.716,414.054c0,1.191,0.006,2.383-0.005,3.574c-0.001,0.217,0.053,0.263,0.268,0.254c1.302-0.054,2.606-0.069,3.906-0.176
			c0.94-0.077,1.883-0.148,2.788-0.447c1.218-0.401,2.21-1.083,2.726-2.298c0.419-0.984,0.433-2.019,0.245-3.062
			c-0.151-0.851-0.645-1.405-1.457-1.683c-0.801-0.274-1.634-0.302-2.464-0.269c-1.915,0.077-3.829,0.187-5.744,0.265
			c-0.244,0.01-0.268,0.096-0.266,0.296C296.72,411.69,296.716,412.872,296.716,414.054z M314.759,413.237
			c0-0.265-0.006-0.529,0.002-0.792c0.004-0.13-0.024-0.185-0.171-0.169c-0.525,0.057-1.051,0.107-1.578,0.151
			c-0.124,0.011-0.181,0.039-0.178,0.182c0.009,0.5,0.008,1,0.001,1.501c-0.002,0.14,0.05,0.181,0.182,0.172
			c0.509-0.039,1.016-0.077,1.524-0.103c0.164-0.008,0.234-0.054,0.222-0.232C314.746,413.71,314.759,413.473,314.759,413.237z
			 M314.759,430.085c0-0.265-0.003-0.53,0.001-0.795c0.002-0.099-0.019-0.155-0.135-0.165c-0.546-0.05-1.091-0.105-1.635-0.161
			c-0.104-0.01-0.155,0.013-0.154,0.133c0.004,0.52,0.003,1.04,0.001,1.561c-0.001,0.101,0.031,0.154,0.142,0.165
			c0.534,0.058,1.069,0.117,1.604,0.185c0.135,0.017,0.184-0.012,0.179-0.156C314.75,430.596,314.759,430.34,314.759,430.085z
			 M314.759,408.411c0-0.263-0.002-0.528,0.001-0.792c0.001-0.103,0.005-0.176-0.148-0.15c-0.521,0.085-1.041,0.16-1.565,0.227
			c-0.162,0.021-0.219,0.074-0.213,0.245c0.013,0.462,0.011,0.925,0.001,1.387c-0.004,0.181,0.032,0.251,0.235,0.221
			c0.503-0.074,1.009-0.13,1.516-0.181c0.154-0.016,0.18-0.087,0.176-0.221C314.752,408.901,314.759,408.657,314.759,408.411z
			 M294.057,408.966c0.001,0.003,0.001,0.006,0.001,0.01c0.272-0.017,0.545-0.038,0.819-0.048c0.109-0.004,0.177-0.018,0.176-0.153
			c-0.006-0.436-0.004-0.871-0.001-1.306c0.001-0.106-0.031-0.152-0.147-0.145c-0.565,0.032-1.132,0.061-1.699,0.083
			c-0.118,0.005-0.136,0.064-0.135,0.163c0.003,0.426,0.004,0.852-0.001,1.277c-0.002,0.127,0.044,0.166,0.165,0.158
			C293.51,408.987,293.783,408.979,294.057,408.966z M299.072,431.913c0-0.006,0-0.014,0-0.02c-0.264,0-0.528,0.015-0.791-0.006
			c-0.142-0.011-0.157,0.038-0.155,0.151c0.003,0.425,0.003,0.849,0,1.273c-0.001,0.105,0.009,0.173,0.148,0.177
			c0.544,0.018,1.09,0.045,1.636,0.074c0.136,0.007,0.182-0.042,0.18-0.178c-0.007-0.414-0.007-0.829,0-1.243
			c0.002-0.131-0.03-0.184-0.172-0.185C299.635,431.954,299.354,431.929,299.072,431.913z M291.556,409.087c0-0.019,0-0.037,0-0.055
			c0.265,0,0.529-0.007,0.793,0.003c0.156,0.005,0.213-0.042,0.208-0.206c-0.01-0.397-0.01-0.795,0.001-1.192
			c0.005-0.171-0.059-0.206-0.213-0.199c-0.509,0.025-1.02,0.046-1.529,0.055c-0.156,0.004-0.219,0.048-0.215,0.211
			c0.009,0.397,0.008,0.795,0.001,1.191c-0.003,0.146,0.04,0.2,0.19,0.194C291.046,409.079,291.302,409.087,291.556,409.087z
			 M289.088,431.744c0,0.014,0,0.026,0,0.039c-0.274,0-0.547,0.004-0.821-0.002c-0.124-0.004-0.165,0.043-0.163,0.164
			c0.004,0.416,0.004,0.831,0,1.247c-0.001,0.127,0.031,0.187,0.176,0.182c0.538-0.023,1.075-0.039,1.612-0.045
			c0.133-0.002,0.178-0.038,0.176-0.176c-0.008-0.406-0.008-0.811,0-1.217c0.002-0.146-0.036-0.201-0.188-0.195
			C289.616,431.753,289.351,431.744,289.088,431.744z M293.317,413.618c-0.266,0-0.53,0.006-0.795-0.003
			c-0.139-0.004-0.203,0.025-0.199,0.183c0.011,0.398,0.012,0.795-0.001,1.192c-0.004,0.168,0.062,0.205,0.215,0.203
			c0.51-0.007,1.021-0.012,1.531,0.002c0.198,0.005,0.237-0.07,0.232-0.247c-0.011-0.369-0.011-0.737,0-1.106
			c0.005-0.168-0.035-0.24-0.217-0.229C293.827,413.628,293.572,413.618,293.317,413.618z M294.093,437.329c0,0.005,0,0.011,0,0.018
			c0.264,0,0.527-0.007,0.791,0.002c0.131,0.004,0.184-0.033,0.18-0.173c-0.007-0.415-0.008-0.83,0.001-1.244
			c0.003-0.145-0.054-0.168-0.181-0.168c-0.538,0.003-1.075,0.001-1.611-0.01c-0.149-0.003-0.195,0.046-0.192,0.193
			c0.008,0.396,0.008,0.792,0,1.188c-0.003,0.148,0.045,0.2,0.193,0.196C293.546,437.322,293.82,437.329,294.093,437.329z
			 M291.079,429.293c0-0.002,0-0.005,0-0.007c0.265,0,0.529-0.004,0.794,0.001c0.121,0.003,0.194-0.016,0.191-0.165
			c-0.007-0.425-0.005-0.85-0.001-1.274c0.001-0.113-0.042-0.146-0.149-0.144c-0.548,0.006-1.096,0.011-1.644,0.007
			c-0.137,0-0.183,0.047-0.18,0.181c0.005,0.415,0.005,0.831,0,1.246c-0.002,0.126,0.045,0.162,0.167,0.159
			C290.531,429.288,290.805,429.293,291.079,429.293z M305.051,433.099c0-0.208-0.008-0.417,0.004-0.624
			c0.008-0.154-0.04-0.215-0.203-0.223c-0.519-0.026-1.036-0.064-1.554-0.109c-0.166-0.015-0.21,0.046-0.206,0.204
			c0.009,0.406,0.013,0.812-0.001,1.219c-0.006,0.184,0.068,0.216,0.229,0.224c0.377,0.019,0.753,0.058,1.129,0.092
			c0.603,0.056,0.603,0.057,0.603-0.557C305.051,433.25,305.051,433.174,305.051,433.099z M293.048,421.243
			c0.264,0,0.528-0.007,0.792,0.003c0.152,0.005,0.217-0.029,0.212-0.199c-0.012-0.405-0.012-0.812,0-1.217
			c0.005-0.169-0.062-0.201-0.212-0.198c-0.519,0.01-1.038,0.015-1.557,0.008c-0.152-0.002-0.189,0.049-0.187,0.194
			c0.008,0.405,0.012,0.812-0.001,1.215c-0.005,0.176,0.069,0.201,0.216,0.196C292.557,421.236,292.802,421.243,293.048,421.243z
			 M290.531,411.614c0-0.007,0-0.013,0-0.021c-0.274,0-0.549,0.005-0.823-0.002c-0.123-0.003-0.166,0.041-0.165,0.164
			c0.005,0.416,0.007,0.833-0.001,1.248c-0.003,0.14,0.046,0.174,0.178,0.174c0.53-0.004,1.06-0.002,1.589,0.01
			c0.165,0.004,0.209-0.052,0.205-0.209c-0.01-0.378-0.014-0.757,0.001-1.136c0.008-0.198-0.074-0.237-0.248-0.23
			C291.023,411.622,290.777,411.614,290.531,411.614z M291.076,427.277c0-0.005,0-0.011,0-0.018c0.254,0,0.509-0.009,0.765,0.004
			c0.167,0.009,0.232-0.032,0.225-0.215c-0.014-0.377-0.016-0.757,0.001-1.133c0.008-0.201-0.073-0.232-0.246-0.227
			c-0.509,0.014-1.019,0.018-1.528,0.018c-0.138,0-0.204,0.025-0.2,0.185c0.009,0.396,0.01,0.793,0,1.189
			c-0.005,0.174,0.072,0.204,0.22,0.198C290.567,427.272,290.821,427.277,291.076,427.277z"/>
		<path fill-rule="evenodd" clip-rule="evenodd" fill="#A6A8AB" d="M312.327,443.43c0,0.283-0.004,0.567,0.001,0.852
			c0.003,0.129-0.016,0.191-0.172,0.153c-0.54-0.133-1.083-0.259-1.628-0.378c-0.124-0.026-0.175-0.074-0.174-0.205
			c0.005-0.558,0.007-1.115-0.001-1.674c-0.002-0.171,0.068-0.181,0.207-0.151c0.526,0.115,1.053,0.227,1.581,0.33
			c0.152,0.029,0.194,0.103,0.188,0.251C312.32,442.881,312.327,443.155,312.327,443.43z"/>
		<path fill-rule="evenodd" clip-rule="evenodd" fill="#A6A8AB" d="M312.327,397.478c0,0.274-0.007,0.548,0.003,0.822
			c0.005,0.139-0.04,0.201-0.181,0.228c-0.527,0.104-1.054,0.218-1.578,0.333c-0.155,0.033-0.222,0.003-0.218-0.174
			c0.009-0.549,0.007-1.097,0-1.645c-0.001-0.13,0.048-0.186,0.171-0.211c0.544-0.119,1.087-0.238,1.627-0.372
			c0.151-0.036,0.181,0,0.177,0.139C312.323,396.891,312.327,397.184,312.327,397.478z"/>
		<path fill-rule="evenodd" clip-rule="evenodd" fill="#A6A8AB" d="M309.876,397.981c0,0.273-0.006,0.547,0.003,0.82
			c0.006,0.134-0.027,0.208-0.172,0.231c-0.538,0.093-1.075,0.189-1.61,0.297c-0.173,0.035-0.204-0.021-0.202-0.179
			c0.01-0.528,0.008-1.056,0.002-1.584c-0.003-0.138,0.04-0.2,0.18-0.227c0.536-0.101,1.073-0.205,1.604-0.326
			c0.183-0.042,0.204,0.023,0.198,0.177C309.87,397.452,309.876,397.717,309.876,397.981z"/>
		<path fill-rule="evenodd" clip-rule="evenodd" fill="#A6A8AB" d="M309.876,442.907c0,0.273-0.007,0.548,0.003,0.821
			c0.006,0.145-0.041,0.18-0.178,0.151c-0.544-0.116-1.089-0.231-1.635-0.336c-0.127-0.024-0.172-0.076-0.17-0.205
			c0.006-0.538,0.005-1.076,0.001-1.614c-0.001-0.127,0.019-0.199,0.169-0.171c0.556,0.107,1.112,0.211,1.668,0.312
			c0.116,0.02,0.148,0.078,0.145,0.191C309.871,442.341,309.876,442.624,309.876,442.907z"/>
		<path fill-rule="evenodd" clip-rule="evenodd" fill="#A6A8AB" d="M305.457,398.727c0.03-0.254-0.137-0.663,0.062-0.863
			c0.182-0.181,0.583-0.144,0.887-0.202c0.268-0.051,0.538-0.098,0.805-0.153c0.149-0.03,0.224-0.008,0.22,0.174
			c-0.011,0.528-0.01,1.056,0,1.584c0.003,0.151-0.063,0.197-0.192,0.216c-0.539,0.084-1.08,0.166-1.617,0.262
			c-0.136,0.025-0.167-0.014-0.165-0.135C305.461,399.336,305.457,399.062,305.457,398.727z"/>
		<path fill-rule="evenodd" clip-rule="evenodd" fill="#A6A8AB" d="M298.021,399.748c0-0.246,0.005-0.49-0.002-0.736
			c-0.004-0.132,0.019-0.199,0.176-0.212c0.545-0.046,1.09-0.102,1.633-0.173c0.178-0.023,0.207,0.041,0.205,0.195
			c-0.007,0.481-0.008,0.963,0,1.445c0.004,0.167-0.046,0.233-0.218,0.247c-0.535,0.042-1.071,0.092-1.604,0.154
			c-0.166,0.019-0.196-0.041-0.192-0.182C298.026,400.24,298.021,399.994,298.021,399.748z"/>
		<path fill-rule="evenodd" clip-rule="evenodd" fill="#A6A8AB" d="M304.986,442.023c0,0.256-0.006,0.511,0.002,0.765
			c0.006,0.148-0.027,0.199-0.19,0.17c-0.538-0.096-1.078-0.18-1.62-0.258c-0.122-0.019-0.183-0.046-0.181-0.185
			c0.006-0.529,0.004-1.058,0.001-1.587c-0.001-0.112,0.013-0.173,0.155-0.151c0.539,0.086,1.082,0.162,1.625,0.232
			c0.158,0.021,0.225,0.076,0.212,0.249C304.972,441.514,304.986,441.77,304.986,442.023z"/>
		<path fill-rule="evenodd" clip-rule="evenodd" fill="#A6A8AB" d="M297.533,399.807c0,0.246-0.003,0.492,0.001,0.737
			c0.003,0.121-0.02,0.188-0.166,0.197c-0.537,0.03-1.074,0.07-1.609,0.119c-0.18,0.017-0.227-0.04-0.224-0.215
			c0.011-0.472,0.008-0.945,0.002-1.417c-0.002-0.136,0.026-0.2,0.182-0.21c0.546-0.038,1.092-0.09,1.637-0.143
			c0.137-0.013,0.184,0.028,0.18,0.167C297.528,399.296,297.533,399.551,297.533,399.807z"/>
		<path fill-rule="evenodd" clip-rule="evenodd" fill="#A6A8AB" d="M297.533,441.098c0,0.235-0.011,0.472,0.004,0.707
			c0.011,0.188-0.062,0.22-0.231,0.202c-0.516-0.052-1.031-0.096-1.549-0.129c-0.17-0.011-0.225-0.069-0.221-0.238
			c0.01-0.473,0.009-0.944,0.001-1.416c-0.003-0.158,0.041-0.216,0.207-0.2c0.535,0.048,1.07,0.087,1.606,0.12
			c0.15,0.011,0.188,0.081,0.185,0.219C297.529,440.607,297.533,440.852,297.533,441.098z"/>
		<path fill-rule="evenodd" clip-rule="evenodd" fill="#A6A8AB" d="M295.052,399.999c0,0.019,0.001,0.038,0,0.057
			c-0.006,0.273,0.09,0.632-0.046,0.794c-0.153,0.183-0.529,0.082-0.809,0.107c-0.318,0.029-0.642,0.025-0.961,0.054
			c-0.157,0.015-0.197-0.038-0.196-0.183c0.005-0.482,0.008-0.965-0.001-1.447c-0.004-0.167,0.063-0.205,0.213-0.211
			c0.548-0.023,1.095-0.052,1.642-0.091c0.135-0.01,0.161,0.036,0.159,0.155C295.048,399.489,295.052,399.744,295.052,399.999z"/>
		<path fill-rule="evenodd" clip-rule="evenodd" fill="#A6A8AB" d="M302.497,399.259c0,0.246-0.008,0.493,0.003,0.737
			c0.005,0.137-0.029,0.208-0.177,0.223c-0.535,0.056-1.071,0.119-1.605,0.186c-0.149,0.02-0.217,0.001-0.213-0.177
			c0.013-0.501,0.008-1.002,0.004-1.503c-0.001-0.118,0.012-0.185,0.159-0.202c0.544-0.062,1.087-0.136,1.628-0.217
			c0.169-0.025,0.213,0.025,0.204,0.187C302.489,398.748,302.497,399.003,302.497,399.259z"/>
		<path fill-rule="evenodd" clip-rule="evenodd" fill="#A6A8AB" d="M302.497,441.658c0,0.255-0.009,0.511,0.003,0.765
			c0.008,0.149-0.051,0.175-0.181,0.156c-0.562-0.078-1.122-0.155-1.684-0.222c-0.125-0.016-0.126-0.082-0.126-0.172
			c0.001-0.521,0.004-1.039-0.001-1.559c-0.003-0.123,0.032-0.168,0.159-0.151c0.562,0.071,1.124,0.14,1.687,0.202
			c0.124,0.015,0.147,0.075,0.145,0.187C302.493,441.129,302.497,441.394,302.497,441.658z"/>
		<path fill-rule="evenodd" clip-rule="evenodd" fill="#A6A8AB" d="M294.055,439.92c0.15,0.012,0.3,0.027,0.45,0.036
			c0.547,0.029,0.547,0.028,0.547,0.59c0,0.359-0.008,0.718,0.004,1.075c0.005,0.171-0.055,0.205-0.212,0.192
			c-0.527-0.039-1.054-0.069-1.583-0.093c-0.147-0.007-0.225-0.038-0.222-0.206c0.008-0.481,0.007-0.964,0.001-1.445
			c-0.002-0.148,0.047-0.203,0.196-0.191c0.272,0.021,0.546,0.032,0.818,0.048C294.054,439.926,294.055,439.922,294.055,439.92z"/>
		<path fill-rule="evenodd" clip-rule="evenodd" fill="#A6A8AB" d="M289.023,439.785c0.292,0,0.585,0.003,0.878-0.001
			c0.113-0.002,0.17,0.018,0.168,0.152c-0.007,0.501-0.007,1.002,0,1.503c0.001,0.146-0.059,0.166-0.188,0.161
			c-0.529-0.018-1.059-0.03-1.586-0.031c-0.161-0.001-0.237-0.022-0.23-0.212c0.015-0.473,0.009-0.945,0.002-1.418
			c-0.003-0.146,0.041-0.2,0.192-0.194c0.255,0.011,0.51,0.004,0.765,0.004C289.023,439.76,289.023,439.772,289.023,439.785z"/>
		<path fill-rule="evenodd" clip-rule="evenodd" fill="#A6A8AB" d="M291.553,441.613c-0.254,0-0.509-0.015-0.763,0.004
			c-0.197,0.015-0.232-0.064-0.228-0.239c0.011-0.453,0.01-0.906,0.001-1.359c-0.003-0.161,0.023-0.236,0.211-0.228
			c0.537,0.03,1.073,0.047,1.61,0.058c0.14,0.003,0.173,0.054,0.172,0.184c-0.006,0.49-0.008,0.981,0,1.472
			c0.002,0.146-0.058,0.171-0.184,0.168c-0.273-0.007-0.547-0.002-0.82-0.002C291.553,441.65,291.553,441.632,291.553,441.613z"/>
		<path fill-rule="evenodd" clip-rule="evenodd" fill="#A6A8AB" d="M286.569,401.113c-0.273,0-0.547-0.005-0.82,0.002
			c-0.134,0.004-0.181-0.041-0.18-0.177c0.006-0.491,0.007-0.981,0-1.472c-0.002-0.141,0.051-0.178,0.182-0.175
			c0.546,0.011,1.093,0.021,1.64,0.022c0.155,0,0.182,0.065,0.18,0.204c-0.007,0.472-0.009,0.944,0.001,1.415
			c0.004,0.167-0.055,0.208-0.21,0.202c-0.264-0.012-0.529-0.003-0.792-0.003C286.569,401.124,286.569,401.118,286.569,401.113z"/>
		<path fill-rule="evenodd" clip-rule="evenodd" fill="#A6A8AB" d="M289.061,401.13c-0.264,0-0.529-0.006-0.793,0.002
			c-0.139,0.004-0.204-0.025-0.202-0.184c0.01-0.491,0.008-0.982,0.001-1.473c-0.002-0.129,0.053-0.162,0.165-0.163
			c0.556-0.006,1.113-0.013,1.669-0.023c0.117-0.002,0.169,0.028,0.168,0.157c-0.006,0.5-0.008,1.001,0,1.501
			c0.002,0.15-0.068,0.168-0.188,0.166c-0.273-0.005-0.547-0.002-0.82-0.002C289.061,401.119,289.061,401.124,289.061,401.13z"/>
		<path fill-rule="evenodd" clip-rule="evenodd" fill="#A6A8AB" d="M312.327,438.74c0,0.236-0.007,0.473,0.002,0.709
			c0.007,0.145-0.024,0.206-0.188,0.175c-0.537-0.105-1.075-0.201-1.614-0.297c-0.119-0.021-0.176-0.069-0.174-0.203
			c0.008-0.474,0.01-0.946-0.001-1.418c-0.005-0.186,0.079-0.199,0.224-0.174c0.52,0.093,1.04,0.189,1.562,0.265
			c0.166,0.022,0.197,0.09,0.19,0.235C312.321,438.268,312.327,438.504,312.327,438.74z"/>
		<path fill-rule="evenodd" clip-rule="evenodd" fill="#A6A8AB" d="M312.327,402.168c0,0.236-0.008,0.473,0.003,0.709
			c0.007,0.142-0.042,0.191-0.184,0.212c-0.522,0.079-1.043,0.17-1.564,0.264c-0.169,0.031-0.235-0.008-0.229-0.196
			c0.013-0.454,0.007-0.907,0.002-1.361c-0.001-0.126,0.013-0.208,0.168-0.234c0.549-0.092,1.096-0.197,1.643-0.302
			c0.125-0.024,0.167,0.015,0.163,0.143C312.323,401.658,312.327,401.913,312.327,402.168z"/>
		<path fill-rule="evenodd" clip-rule="evenodd" fill="#A6A8AB" d="M314.759,440.139c-0.616-0.123-1.188-0.239-1.761-0.35
			c-0.133-0.024-0.187-0.08-0.184-0.225c0.01-0.491,0.009-0.981,0.001-1.472c-0.002-0.145,0.039-0.178,0.179-0.15
			c0.518,0.103,1.036,0.198,1.556,0.287c0.151,0.026,0.219,0.075,0.214,0.25C314.749,439.025,314.759,439.571,314.759,440.139z"/>
		<path fill-rule="evenodd" clip-rule="evenodd" fill="#A6A8AB" d="M314.759,400.749c0,0.588-0.004,1.163,0.003,1.737
			c0.001,0.119-0.063,0.142-0.151,0.157c-0.546,0.102-1.093,0.202-1.639,0.306c-0.138,0.027-0.156-0.038-0.155-0.152
			c0.005-0.5,0.008-1-0.002-1.5c-0.003-0.144,0.073-0.174,0.181-0.196C313.575,400.986,314.156,400.869,314.759,400.749z"/>
		<path fill-rule="evenodd" clip-rule="evenodd" fill="#A6A8AB" d="M314.758,398.404c0,0.593-0.002,1.167,0.003,1.741
			c0,0.114-0.057,0.135-0.151,0.155c-0.544,0.108-1.087,0.22-1.629,0.342c-0.13,0.029-0.165,0-0.164-0.127
			c0.005-0.509,0.003-1.018,0.002-1.527c0-0.094,0.016-0.154,0.129-0.178C313.544,398.682,314.139,398.544,314.758,398.404z"/>
		<path fill-rule="evenodd" clip-rule="evenodd" fill="#A6A8AB" d="M309.876,440.612c-0.025,0.239,0.045,0.531-0.031,0.816
			c-0.278-0.05-0.555-0.102-0.833-0.152c-0.315-0.056-0.63-0.12-0.948-0.164c-0.135-0.019-0.169-0.076-0.166-0.201
			c0.004-0.472,0.005-0.944-0.001-1.417c-0.002-0.129,0.043-0.165,0.167-0.144c0.558,0.097,1.115,0.191,1.673,0.279
			c0.129,0.021,0.145,0.091,0.142,0.197C309.873,440.071,309.876,440.317,309.876,440.612z"/>
		<path fill-rule="evenodd" clip-rule="evenodd" fill="#A6A8AB" d="M309.876,400.353c0,0.048,0,0.095,0,0.142
			c0,0.743,0,0.743-0.722,0.863c-0.343,0.058-0.688,0.109-1.03,0.172c-0.167,0.031-0.236-0.003-0.23-0.193
			c0.015-0.443,0.007-0.887,0.004-1.331c0-0.123,0.007-0.206,0.167-0.232c0.549-0.087,1.095-0.188,1.64-0.296
			c0.14-0.028,0.182-0.006,0.175,0.14C309.869,399.862,309.876,400.107,309.876,400.353z"/>
		<path fill-rule="evenodd" clip-rule="evenodd" fill="#A6A8AB" d="M309.876,402.642c-0.026,0.241,0.127,0.617-0.06,0.793
			c-0.168,0.161-0.536,0.112-0.816,0.154c-0.309,0.047-0.617,0.086-0.924,0.143c-0.143,0.026-0.183-0.012-0.18-0.153
			c0.006-0.473,0.005-0.946,0.001-1.419c-0.001-0.114,0.028-0.164,0.15-0.182c0.552-0.083,1.102-0.177,1.65-0.271
			c0.129-0.022,0.188,0,0.181,0.15C309.868,402.104,309.876,402.349,309.876,402.642z"/>
		<path fill-rule="evenodd" clip-rule="evenodd" fill="#A6A8AB" d="M309.876,438.333c0,0.235-0.005,0.473,0.003,0.708
			c0.005,0.133-0.043,0.16-0.165,0.139c-0.559-0.096-1.116-0.188-1.675-0.275c-0.103-0.016-0.143-0.053-0.142-0.161
			c0.004-0.481,0.003-0.963,0.001-1.444c-0.001-0.118,0.021-0.167,0.161-0.144c0.549,0.09,1.099,0.174,1.651,0.245
			c0.136,0.018,0.172,0.07,0.168,0.196C309.871,437.843,309.876,438.087,309.876,438.333z"/>
		<path fill-rule="evenodd" clip-rule="evenodd" fill="#A6A8AB" d="M300.031,439.155c0,0.132,0,0.263,0,0.396
			c0,0.45,0.001,0.444-0.436,0.396c-0.468-0.052-0.937-0.099-1.406-0.136c-0.135-0.012-0.172-0.061-0.169-0.191
			c0.006-0.425,0.007-0.849-0.001-1.272c-0.003-0.146,0.035-0.204,0.188-0.188c0.554,0.056,1.106,0.109,1.659,0.152
			c0.142,0.011,0.172,0.068,0.168,0.193C300.026,438.721,300.031,438.938,300.031,439.155z"/>
		<path fill-rule="evenodd" clip-rule="evenodd" fill="#A6A8AB" d="M300.031,437.083c0,0.037,0,0.076,0,0.113
			c0,0.733,0.001,0.73-0.72,0.652c-0.365-0.041-0.733-0.072-1.102-0.093c-0.146-0.007-0.194-0.058-0.191-0.203
			c0.008-0.426,0.008-0.851,0-1.276c-0.002-0.138,0.044-0.183,0.18-0.172c0.555,0.045,1.11,0.087,1.666,0.123
			c0.138,0.01,0.172,0.079,0.169,0.203C300.027,436.648,300.031,436.865,300.031,437.083z"/>
		<path fill-rule="evenodd" clip-rule="evenodd" fill="#A6A8AB" d="M280.106,434.696c0,0.217-0.006,0.435,0.003,0.651
			c0.005,0.148-0.056,0.189-0.2,0.194c-0.526,0.023-1.054,0.053-1.579,0.094c-0.159,0.014-0.223-0.015-0.22-0.186
			c0.008-0.424,0.008-0.849,0-1.273c-0.002-0.137,0.051-0.176,0.179-0.183c0.545-0.026,1.09-0.058,1.635-0.094
			c0.134-0.009,0.188,0.036,0.184,0.173C280.101,434.281,280.106,434.488,280.106,434.696z"/>
		<path fill-rule="evenodd" clip-rule="evenodd" fill="#A6A8AB" d="M279.109,405.308c0.273,0.014,0.545,0.034,0.818,0.037
			c0.135,0.001,0.184,0.043,0.182,0.179c-0.005,0.434-0.004,0.868,0,1.302c0.001,0.119-0.033,0.168-0.163,0.159
			c-0.554-0.038-1.109-0.071-1.665-0.095c-0.142-0.006-0.172-0.062-0.17-0.189c0.005-0.424,0.006-0.849-0.001-1.274
			c-0.002-0.137,0.045-0.186,0.18-0.175c0.272,0.022,0.545,0.036,0.818,0.053C279.109,405.305,279.109,405.307,279.109,405.308z"/>
		<path fill-rule="evenodd" clip-rule="evenodd" fill="#A6A8AB" d="M278.113,436.805c0.034-0.216-0.12-0.559,0.063-0.713
			c0.158-0.135,0.486-0.072,0.741-0.09c0.32-0.022,0.641-0.034,0.96-0.06c0.156-0.013,0.242,0.006,0.234,0.203
			c-0.016,0.406-0.01,0.812-0.002,1.219c0.004,0.155-0.043,0.213-0.204,0.221c-0.527,0.025-1.054,0.062-1.582,0.105
			c-0.154,0.013-0.225-0.018-0.213-0.19C278.124,437.283,278.113,437.065,278.113,436.805z"/>
		<path fill-rule="evenodd" clip-rule="evenodd" fill="#A6A8AB" d="M279.085,409.426c0.263,0,0.528,0.007,0.792-0.003
			c0.164-0.006,0.24,0.035,0.234,0.219c-0.012,0.406-0.009,0.812-0.001,1.219c0.004,0.161-0.048,0.214-0.21,0.206
			c-0.518-0.026-1.036-0.042-1.554-0.057c-0.155-0.005-0.242-0.042-0.235-0.228c0.012-0.405,0.01-0.812,0.001-1.218
			c-0.004-0.162,0.045-0.213,0.21-0.204c0.253,0.016,0.508,0.004,0.762,0.004C279.085,409.385,279.085,409.406,279.085,409.426z"/>
		<path fill-rule="evenodd" clip-rule="evenodd" fill="#A6A8AB" d="M280.106,412.294c0,0.218-0.002,0.435,0.001,0.652
			c0.002,0.116-0.032,0.164-0.165,0.157c-0.545-0.024-1.092-0.042-1.64-0.048c-0.151-0.002-0.194-0.053-0.191-0.197
			c0.006-0.425,0.006-0.85-0.001-1.274c-0.002-0.139,0.046-0.18,0.18-0.174c0.555,0.024,1.111,0.045,1.667,0.057
			c0.138,0.002,0.151,0.068,0.149,0.176C280.104,411.86,280.107,412.078,280.106,412.294z"/>
		<path fill-rule="evenodd" clip-rule="evenodd" fill="#A6A8AB" d="M279.106,427.423c-0.265,0-0.529-0.007-0.793,0.002
			c-0.138,0.004-0.207-0.021-0.202-0.183c0.01-0.426,0.005-0.851,0.001-1.277c-0.001-0.128,0.033-0.184,0.175-0.184
			c0.559-0.004,1.116-0.014,1.673-0.03c0.12-0.004,0.147,0.041,0.147,0.146c-0.002,0.444-0.004,0.89,0.001,1.333
			c0.001,0.14-0.077,0.148-0.182,0.146c-0.274-0.003-0.548,0-0.821,0C279.106,427.392,279.106,427.407,279.106,427.423z"/>
		<path fill-rule="evenodd" clip-rule="evenodd" fill="#A6A8AB" d="M279.138,423.722c0.255,0,0.511,0.009,0.765-0.004
			c0.166-0.008,0.21,0.054,0.207,0.211c-0.008,0.396-0.008,0.794,0,1.191c0.003,0.15-0.028,0.215-0.2,0.216
			c-0.538,0.003-1.075,0.023-1.613,0.044c-0.128,0.005-0.188-0.025-0.186-0.169c0.008-0.435,0.007-0.87,0-1.304
			c-0.002-0.135,0.04-0.184,0.178-0.18c0.282,0.01,0.566,0.003,0.85,0.003C279.138,423.728,279.138,423.725,279.138,423.722z"/>
		<path fill-rule="evenodd" clip-rule="evenodd" fill="#A6A8AB" d="M289.071,405.161c-0.265,0-0.529-0.007-0.792,0.003
			c-0.156,0.006-0.218-0.036-0.213-0.203c0.011-0.406,0.008-0.812,0-1.22c-0.003-0.147,0.044-0.196,0.193-0.194
			c0.539,0.002,1.077-0.004,1.616-0.017c0.146-0.004,0.199,0.036,0.196,0.189c-0.009,0.406-0.01,0.812,0,1.22
			c0.004,0.157-0.04,0.216-0.204,0.209c-0.265-0.013-0.529-0.003-0.795-0.003C289.071,405.149,289.071,405.156,289.071,405.161z"/>
		<path fill-rule="evenodd" clip-rule="evenodd" fill="#A6A8AB" d="M286.57,415.209c-0.274,0-0.549-0.006-0.822,0.002
			c-0.137,0.004-0.182-0.043-0.179-0.178c0.006-0.425,0.006-0.851,0-1.276c-0.001-0.126,0.049-0.163,0.167-0.162
			c0.557,0.003,1.116,0.004,1.673-0.001c0.123,0,0.163,0.044,0.162,0.166c-0.005,0.425-0.007,0.85,0,1.275
			c0.003,0.138-0.045,0.18-0.179,0.176C287.119,415.203,286.844,415.209,286.57,415.209z"/>
		<path fill-rule="evenodd" clip-rule="evenodd" fill="#A6A8AB" d="M286.554,427.3c-0.265,0-0.529-0.009-0.794,0.003
			c-0.15,0.005-0.195-0.048-0.191-0.195c0.007-0.415,0.007-0.831,0-1.247c-0.002-0.141,0.053-0.176,0.183-0.176
			c0.539,0,1.077-0.003,1.616-0.018c0.165-0.005,0.208,0.052,0.204,0.209c-0.009,0.406-0.009,0.813,0,1.22
			c0.003,0.152-0.052,0.193-0.196,0.189c-0.274-0.01-0.548-0.003-0.822-0.003C286.554,427.288,286.554,427.293,286.554,427.3z"/>
		<path fill-rule="evenodd" clip-rule="evenodd" fill="#A6A8AB" d="M286.567,405.144c-0.264,0-0.529-0.005-0.793,0.002
			c-0.134,0.003-0.208-0.02-0.205-0.182c0.009-0.416,0.009-0.833,0-1.248c-0.003-0.156,0.059-0.189,0.2-0.187
			c0.539,0.012,1.078,0.02,1.616,0.016c0.154,0,0.19,0.055,0.188,0.198c-0.008,0.407-0.011,0.813,0,1.22
			c0.005,0.169-0.056,0.207-0.211,0.201c-0.265-0.012-0.529-0.003-0.792-0.003C286.568,405.156,286.568,405.149,286.567,405.144z"/>
		<path fill-rule="evenodd" clip-rule="evenodd" fill="#A6A8AB" d="M286.579,423.27c-0.265,0-0.529-0.008-0.792,0.002
			c-0.149,0.005-0.224-0.023-0.219-0.197c0.011-0.406,0.011-0.812,0-1.219c-0.005-0.172,0.064-0.203,0.215-0.201
			c0.529,0.008,1.059,0.007,1.587,0c0.138-0.002,0.206,0.024,0.201,0.185c-0.01,0.416-0.01,0.831,0,1.247
			c0.004,0.157-0.057,0.19-0.198,0.186C287.11,423.262,286.844,423.27,286.579,423.27z"/>
		<path fill-rule="evenodd" clip-rule="evenodd" fill="#A6A8AB" d="M284.064,423.277c-0.265,0-0.529-0.009-0.793,0.005
			c-0.167,0.008-0.204-0.054-0.201-0.209c0.01-0.406,0.008-0.812,0.002-1.217c-0.003-0.14,0.026-0.204,0.185-0.202
			c0.547,0.009,1.095,0.007,1.641,0c0.136-0.001,0.179,0.045,0.176,0.18c-0.006,0.414-0.007,0.83,0.001,1.245
			c0.002,0.146-0.039,0.198-0.19,0.193c-0.273-0.012-0.547-0.003-0.82-0.003C284.064,423.272,284.064,423.274,284.064,423.277z"/>
		<path fill-rule="evenodd" clip-rule="evenodd" fill="#A6A8AB" d="M284.059,419.221c-0.263,0-0.529-0.006-0.792,0.002
			c-0.144,0.005-0.199-0.039-0.196-0.191c0.008-0.415,0.007-0.83,0.001-1.245c-0.002-0.133,0.038-0.183,0.176-0.181
			c0.548,0.007,1.095,0.009,1.643,0c0.159-0.003,0.184,0.062,0.182,0.2c-0.006,0.415-0.008,0.83,0.001,1.246
			c0.003,0.151-0.047,0.195-0.195,0.188c-0.273-0.009-0.546-0.003-0.82-0.003C284.059,419.233,284.059,419.228,284.059,419.221z"/>
		<path fill-rule="evenodd" clip-rule="evenodd" fill="#A6A8AB" d="M286.572,419.239c-0.275,0-0.549-0.006-0.823,0.002
			c-0.134,0.004-0.183-0.04-0.18-0.177c0.006-0.425,0.006-0.85,0-1.276c-0.001-0.124,0.046-0.164,0.167-0.163
			c0.557,0.003,1.115,0.004,1.672-0.001c0.122,0,0.165,0.041,0.164,0.164c-0.005,0.425-0.007,0.851,0,1.276
			c0.002,0.135-0.041,0.181-0.177,0.177C287.12,419.233,286.846,419.239,286.572,419.239z"/>
		<path fill-rule="evenodd" clip-rule="evenodd" fill="#A6A8AB" d="M281.559,425.321c-0.265,0-0.529-0.007-0.793,0.003
			c-0.14,0.007-0.176-0.046-0.173-0.178c0.006-0.416,0.006-0.831-0.001-1.247c-0.002-0.141,0.035-0.202,0.188-0.202
			c0.538,0.002,1.076-0.003,1.614-0.018c0.162-0.004,0.185,0.065,0.184,0.201c-0.007,0.416-0.009,0.831,0.001,1.247
			c0.003,0.154-0.052,0.192-0.197,0.188c-0.272-0.01-0.547-0.002-0.821-0.002C281.559,425.315,281.559,425.318,281.559,425.321z"/>
		<path fill-rule="evenodd" clip-rule="evenodd" fill="#A6A8AB" d="M281.626,417.188c-0.273,0-0.547,0-0.821,0.001
			c-0.141,0-0.221-0.039-0.215-0.211c0.013-0.415,0.008-0.83,0.001-1.246c-0.002-0.135,0.041-0.181,0.177-0.177
			c0.546,0.015,1.093,0.023,1.64,0.027c0.117,0,0.169,0.031,0.168,0.159c-0.006,0.434-0.009,0.869,0.001,1.302
			c0.003,0.151-0.063,0.167-0.187,0.164c-0.254-0.007-0.509-0.003-0.765-0.003C281.626,417.198,281.626,417.193,281.626,417.188z"/>
		<path fill-rule="evenodd" clip-rule="evenodd" fill="#A6A8AB" d="M281.603,421.265c-0.265,0-0.529-0.005-0.794,0.002
			c-0.146,0.004-0.224-0.025-0.219-0.2c0.012-0.416,0.007-0.833,0.002-1.248c-0.002-0.126,0.025-0.188,0.169-0.188
			c0.548,0.007,1.096,0.007,1.644,0c0.145-0.002,0.171,0.055,0.17,0.183c-0.006,0.425-0.009,0.85,0,1.275
			c0.002,0.138-0.045,0.181-0.179,0.177C282.134,421.259,281.868,421.265,281.603,421.265z"/>
		<path fill-rule="evenodd" clip-rule="evenodd" fill="#A6A8AB" d="M281.633,425.73c0.302,0,0.696-0.114,0.879,0.032
			c0.193,0.153,0.058,0.565,0.056,0.863c0,0.228,0.115,0.532-0.059,0.663c-0.15,0.112-0.437,0.043-0.664,0.049
			c-0.34,0.011-0.68,0.007-1.02,0.029c-0.19,0.013-0.24-0.05-0.234-0.234c0.013-0.396,0.011-0.795,0-1.191
			c-0.003-0.148,0.05-0.207,0.192-0.206c0.283,0.001,0.566,0,0.85,0V425.73z"/>
		<path fill-rule="evenodd" clip-rule="evenodd" fill="#A6A8AB" d="M281.547,437.526c-0.264,0-0.526-0.006-0.79,0.003
			c-0.122,0.004-0.167-0.031-0.165-0.156c0.005-0.434,0.005-0.868,0-1.302c-0.001-0.124,0.05-0.163,0.167-0.167
			c0.546-0.021,1.091-0.044,1.636-0.075c0.165-0.01,0.182,0.069,0.179,0.202c-0.005,0.405-0.009,0.812,0.002,1.217
			c0.004,0.163-0.057,0.217-0.21,0.213c-0.273-0.005-0.547-0.001-0.82-0.001C281.547,437.482,281.547,437.504,281.547,437.526z"/>
		<path fill-rule="evenodd" clip-rule="evenodd" fill="#A6A8AB" d="M284.072,433.381c-0.264,0-0.527-0.007-0.791,0.003
			c-0.152,0.008-0.216-0.028-0.211-0.196c0.011-0.415,0.008-0.831,0.002-1.245c-0.002-0.133,0.037-0.183,0.175-0.184
			c0.547-0.002,1.094-0.013,1.64-0.024c0.121-0.004,0.191,0.008,0.188,0.161c-0.009,0.424-0.009,0.849,0,1.273
			c0.003,0.146-0.055,0.171-0.182,0.168c-0.273-0.007-0.547-0.002-0.82-0.002C284.072,433.351,284.072,433.365,284.072,433.381z"/>
		<path fill-rule="evenodd" clip-rule="evenodd" fill="#A6A8AB" d="M281.558,431.427c-0.265,0-0.529-0.011-0.792,0.003
			c-0.146,0.009-0.176-0.044-0.174-0.174c0.005-0.425,0.006-0.851-0.001-1.276c-0.002-0.136,0.043-0.176,0.178-0.178
			c0.528-0.008,1.057-0.022,1.584-0.048c0.174-0.009,0.228,0.043,0.223,0.22c-0.013,0.406-0.01,0.812-0.001,1.219
			c0.002,0.148-0.049,0.201-0.196,0.195c-0.274-0.008-0.548-0.002-0.822-0.002C281.558,431.399,281.558,431.413,281.558,431.427z"/>
		<path fill-rule="evenodd" clip-rule="evenodd" fill="#A6A8AB" d="M281.604,407.017c-0.283,0-0.565-0.003-0.849,0.001
			c-0.122,0.001-0.165-0.047-0.162-0.169c0.005-0.434,0.006-0.87,0-1.304c-0.002-0.132,0.056-0.155,0.169-0.151
			c0.557,0.026,1.114,0.049,1.67,0.066c0.117,0.003,0.143,0.051,0.142,0.154c-0.002,0.445-0.002,0.889,0,1.333
			c0.001,0.108-0.032,0.142-0.149,0.136c-0.273-0.012-0.548-0.004-0.821-0.004C281.604,407.059,281.604,407.038,281.604,407.017z"/>
		<path fill-rule="evenodd" clip-rule="evenodd" fill="#A6A8AB" d="M284.083,429.342c-0.274,0-0.548-0.007-0.822,0.004
			c-0.152,0.006-0.192-0.052-0.189-0.196c0.006-0.406,0.007-0.812-0.001-1.219c-0.003-0.141,0.033-0.216,0.183-0.216
			c0.558-0.002,1.115-0.004,1.673-0.011c0.11-0.003,0.146,0.035,0.145,0.146c-0.004,0.435-0.005,0.87,0.001,1.304
			c0.002,0.134-0.056,0.154-0.168,0.152c-0.274-0.005-0.548-0.001-0.821-0.001C284.083,429.317,284.083,429.33,284.083,429.342z"/>
		<path fill-rule="evenodd" clip-rule="evenodd" fill="#A6A8AB" d="M286.572,437.355c-0.265,0-0.529-0.007-0.792,0.004
			c-0.152,0.005-0.217-0.03-0.211-0.199c0.011-0.406,0.01-0.812,0-1.219c-0.003-0.154,0.051-0.188,0.194-0.188
			c0.529,0.001,1.059-0.004,1.588-0.021c0.172-0.007,0.228,0.041,0.222,0.22c-0.013,0.406-0.008,0.812-0.001,1.219
			c0.002,0.134-0.039,0.183-0.176,0.178c-0.275-0.009-0.548-0.002-0.823-0.002C286.572,437.35,286.572,437.353,286.572,437.355z"/>
		<path fill-rule="evenodd" clip-rule="evenodd" fill="#A6A8AB" d="M289.045,437.347c-0.255,0-0.512-0.009-0.766,0.003
			c-0.155,0.006-0.218-0.034-0.214-0.202c0.012-0.406,0.008-0.812,0.001-1.219c-0.003-0.146,0.04-0.2,0.191-0.195
			c0.548,0.013,1.095,0.021,1.643,0.02c0.145,0,0.17,0.056,0.169,0.184c-0.006,0.415-0.008,0.831,0,1.246
			c0.002,0.136-0.038,0.181-0.175,0.177c-0.282-0.011-0.566-0.004-0.849-0.004C289.045,437.353,289.045,437.35,289.045,437.347z"/>
		<path fill-rule="evenodd" clip-rule="evenodd" fill="#A6A8AB" d="M284.038,411.165c-0.141-0.008-0.281-0.02-0.422-0.025
			c-0.542-0.017-0.542-0.016-0.542-0.57c0-0.292,0.004-0.584-0.002-0.876c-0.002-0.119,0.03-0.169,0.158-0.166
			c0.546,0.015,1.093,0.024,1.639,0.029c0.151,0.001,0.211,0.049,0.206,0.212c-0.013,0.396-0.017,0.793,0.001,1.188
			c0.008,0.205-0.08,0.23-0.248,0.223c-0.263-0.01-0.526-0.003-0.79-0.003C284.038,411.173,284.038,411.169,284.038,411.165z"/>
		<path fill-rule="evenodd" clip-rule="evenodd" fill="#A6A8AB" d="M281.599,431.792c0.264,0,0.528,0.01,0.792-0.004
			c0.155-0.008,0.188,0.049,0.186,0.19c-0.009,0.415-0.005,0.83-0.002,1.245c0.002,0.108-0.009,0.169-0.147,0.172
			c-0.564,0.016-1.129,0.044-1.693,0.07c-0.117,0.006-0.141-0.054-0.14-0.156c0.003-0.433,0.006-0.867-0.002-1.301
			c-0.003-0.148,0.071-0.171,0.19-0.17c0.273,0.002,0.544,0,0.817,0C281.599,431.823,281.599,431.808,281.599,431.792z"/>
		<path fill-rule="evenodd" clip-rule="evenodd" fill="#A6A8AB" d="M281.603,413.561c0.264,0,0.527,0.005,0.791-0.002
			c0.127-0.004,0.186,0.023,0.183,0.168c-0.009,0.425-0.009,0.849,0,1.273c0.002,0.141-0.047,0.176-0.178,0.173
			c-0.547-0.013-1.094-0.018-1.641-0.019c-0.122,0-0.166-0.043-0.165-0.165c0.005-0.434,0.006-0.868,0-1.301
			c-0.003-0.15,0.07-0.169,0.19-0.167c0.273,0.005,0.546,0.002,0.82,0.002C281.603,413.536,281.603,413.548,281.603,413.561z"/>
		<path fill-rule="evenodd" clip-rule="evenodd" fill="#A6A8AB" d="M281.591,407.487c0.264,0,0.527,0.005,0.791-0.001
			c0.141-0.004,0.199,0.034,0.196,0.189c-0.012,0.416-0.008,0.832-0.001,1.247c0.002,0.134-0.038,0.182-0.175,0.176
			c-0.538-0.023-1.075-0.044-1.612-0.052c-0.17-0.002-0.2-0.07-0.197-0.22c0.009-0.397,0.011-0.794,0-1.19
			c-0.004-0.16,0.043-0.217,0.207-0.209c0.264,0.012,0.528,0.003,0.792,0.003C281.591,407.449,281.591,407.469,281.591,407.487z"/>
		<path fill-rule="evenodd" clip-rule="evenodd" fill="#A6A8AB" d="M284.104,423.675c0.265,0,0.529,0.007,0.793-0.002
			c0.135-0.006,0.179,0.036,0.176,0.174c-0.007,0.415-0.006,0.831,0,1.247c0.002,0.123-0.021,0.184-0.167,0.184
			c-0.547-0.002-1.095,0.007-1.642,0.021c-0.15,0.003-0.196-0.047-0.193-0.195c0.008-0.406,0.01-0.812-0.001-1.219
			c-0.004-0.167,0.056-0.209,0.212-0.203c0.274,0.012,0.548,0.003,0.822,0.003C284.104,423.681,284.104,423.678,284.104,423.675z"/>
		<path fill-rule="evenodd" clip-rule="evenodd" fill="#A6A8AB" d="M284.048,407.099c-0.265,0-0.528-0.008-0.792,0.004
			c-0.156,0.007-0.188-0.054-0.186-0.196c0.008-0.416,0.002-0.83,0.004-1.246c0-0.09-0.026-0.179,0.139-0.172
			c0.547,0.026,1.094,0.033,1.641,0.038c0.166,0.001,0.227,0.049,0.221,0.228c-0.014,0.405-0.008,0.812-0.002,1.218
			c0.002,0.134-0.041,0.181-0.177,0.177c-0.283-0.009-0.566-0.003-0.849-0.003C284.047,407.132,284.047,407.116,284.048,407.099z"/>
		<path fill-rule="evenodd" clip-rule="evenodd" fill="#A6A8AB" d="M281.582,429.399c-0.265,0-0.528-0.006-0.792,0.002
			c-0.144,0.006-0.202-0.035-0.199-0.189c0.01-0.425,0.006-0.85,0.002-1.274c-0.001-0.118,0.034-0.167,0.16-0.169
			c0.567-0.008,1.132-0.021,1.698-0.037c0.109-0.003,0.122,0.058,0.122,0.142c-0.002,0.445-0.006,0.889,0.002,1.333
			c0.002,0.139-0.066,0.148-0.174,0.146c-0.273-0.004-0.547-0.001-0.821-0.001C281.582,429.367,281.582,429.383,281.582,429.399z"/>
		<path fill-rule="evenodd" clip-rule="evenodd" fill="#A6A8AB" d="M284.065,437.402c-0.319,0-0.725,0.12-0.93-0.033
			c-0.197-0.147-0.053-0.58-0.057-0.887c-0.01-0.675-0.003-0.675,0.69-0.69c0.377-0.009,0.753-0.013,1.129-0.028
			c0.135-0.006,0.179,0.036,0.176,0.173c-0.007,0.425-0.006,0.849,0,1.272c0.002,0.125-0.042,0.16-0.163,0.158
			c-0.281-0.007-0.563-0.002-0.846-0.002C284.065,437.378,284.065,437.391,284.065,437.402z"/>
		<path fill-rule="evenodd" clip-rule="evenodd" fill="#A6A8AB" d="M285.071,438.644c-0.032,0.214,0.119,0.56-0.062,0.707
			c-0.154,0.128-0.485,0.039-0.74,0.049c-0.328,0.014-0.657,0.025-0.986,0.049c-0.156,0.011-0.217-0.035-0.211-0.2
			c0.01-0.405,0.009-0.812,0-1.217c-0.003-0.16,0.051-0.214,0.209-0.216c0.518-0.005,1.036-0.019,1.554-0.04
			c0.175-0.006,0.259,0.03,0.24,0.229C285.055,438.201,285.071,438.4,285.071,438.644z"/>
		<path fill-rule="evenodd" clip-rule="evenodd" fill="#A6A8AB" d="M284.082,435.398c-0.265,0-0.529-0.006-0.792,0.002
			c-0.146,0.006-0.225-0.019-0.22-0.195c0.012-0.406,0.009-0.813,0.002-1.22c-0.003-0.14,0.032-0.202,0.186-0.204
			c0.548-0.005,1.096-0.017,1.643-0.035c0.142-0.004,0.175,0.052,0.173,0.183c-0.006,0.416-0.009,0.832,0.001,1.248
			c0.003,0.157-0.057,0.19-0.198,0.186c-0.265-0.01-0.529-0.003-0.794-0.003C284.082,435.372,284.082,435.385,284.082,435.398z"/>
		<path fill-rule="evenodd" clip-rule="evenodd" fill="#A6A8AB" d="M286.589,411.593c0.266,0,0.53,0.008,0.794-0.003
			c0.154-0.007,0.191,0.051,0.188,0.195c-0.008,0.406-0.012,0.813,0.001,1.219c0.005,0.168-0.056,0.207-0.21,0.203
			c-0.539-0.015-1.077-0.021-1.615-0.021c-0.134,0-0.18-0.04-0.178-0.176c0.007-0.416,0.01-0.831-0.001-1.247
			c-0.004-0.161,0.062-0.185,0.2-0.181c0.273,0.008,0.548,0.002,0.821,0.002C286.589,411.587,286.589,411.59,286.589,411.593z"/>
		<path fill-rule="evenodd" clip-rule="evenodd" fill="#A6A8AB" d="M284.083,413.164c-0.274,0-0.548-0.007-0.822,0.003
			c-0.154,0.006-0.192-0.053-0.189-0.196c0.007-0.406,0.006-0.812,0-1.22c-0.002-0.134,0.017-0.208,0.182-0.201
			c0.548,0.018,1.095,0.023,1.643,0.026c0.13,0.001,0.18,0.04,0.177,0.178c-0.009,0.417-0.01,0.833,0,1.248
			c0.004,0.158-0.058,0.188-0.198,0.182c-0.264-0.008-0.528-0.002-0.793-0.002C284.083,413.176,284.083,413.17,284.083,413.164z"/>
		<path fill-rule="evenodd" clip-rule="evenodd" fill="#A6A8AB" d="M289.095,403.135c-0.283,0-0.566-0.005-0.849,0.003
			c-0.134,0.004-0.181-0.038-0.179-0.175c0.007-0.415,0.007-0.83,0.001-1.246c-0.002-0.127,0.021-0.184,0.167-0.183
			c0.557,0.005,1.114,0,1.671-0.008c0.122-0.001,0.164,0.035,0.162,0.16c-0.006,0.424-0.008,0.849,0.001,1.274
			c0.003,0.145-0.054,0.172-0.181,0.169c-0.265-0.008-0.528-0.003-0.793-0.003C289.095,403.129,289.095,403.131,289.095,403.135z"/>
		<path fill-rule="evenodd" clip-rule="evenodd" fill="#A6A8AB" d="M289.064,437.762c0.255,0,0.51,0.01,0.765-0.003
			c0.175-0.009,0.25,0.03,0.242,0.229c-0.016,0.386-0.013,0.772-0.001,1.159c0.005,0.167-0.03,0.233-0.214,0.228
			c-0.528-0.021-1.056-0.024-1.584-0.025c-0.154,0-0.21-0.044-0.206-0.207c0.013-0.396,0.012-0.793,0-1.188
			c-0.004-0.162,0.047-0.211,0.207-0.203c0.263,0.011,0.528,0.003,0.792,0.003C289.064,437.756,289.064,437.759,289.064,437.762z"/>
		<path fill-rule="evenodd" clip-rule="evenodd" fill="#A6A8AB" d="M284.074,415.605c0.274,0,0.548,0.005,0.821-0.003
			c0.133-0.004,0.182,0.034,0.178,0.173c-0.008,0.425-0.009,0.849,0,1.274c0.004,0.149-0.061,0.167-0.184,0.166
			c-0.547-0.008-1.094-0.012-1.641-0.008c-0.136,0.001-0.179-0.04-0.176-0.176c0.007-0.424,0.006-0.848,0-1.273
			c-0.002-0.14,0.047-0.174,0.182-0.168c0.273,0.013,0.547,0.003,0.82,0.003C284.074,415.597,284.074,415.602,284.074,415.605z"/>
		<path fill-rule="evenodd" clip-rule="evenodd" fill="#A6A8AB" d="M286.576,421.243c-0.246,0-0.493-0.012-0.738,0.004
			c-0.199,0.012-0.285-0.028-0.272-0.256c0.021-0.376,0.013-0.755,0.002-1.133c-0.005-0.166,0.029-0.232,0.214-0.227
			c0.509,0.013,1.02,0.013,1.53,0.001c0.213-0.006,0.27,0.064,0.259,0.273c-0.019,0.378-0.011,0.756-0.002,1.134
			c0.004,0.155-0.037,0.216-0.201,0.208C287.105,421.233,286.841,421.243,286.576,421.243z"/>
		<path fill-rule="evenodd" clip-rule="evenodd" fill="#A6A8AB" d="M286.553,429.303c-0.265,0-0.529-0.009-0.793,0.003
			c-0.151,0.008-0.195-0.042-0.191-0.19c0.009-0.405,0.008-0.812,0-1.217c-0.002-0.141,0.028-0.199,0.184-0.197
			c0.548,0.007,1.095,0.002,1.643-0.008c0.136-0.002,0.177,0.042,0.175,0.176c-0.008,0.416-0.01,0.831,0.001,1.246
			c0.004,0.16-0.061,0.187-0.198,0.183c-0.274-0.01-0.547-0.004-0.821-0.004C286.553,429.298,286.553,429.3,286.553,429.303z"/>
	</g>
</g>
</svg>
