<?xml version="1.0" encoding="utf-8"?>
<!-- Generator: Adobe Illustrator 16.0.0, SVG Export Plug-In . SVG Version: 6.00 Build 0)  -->
<!DOCTYPE svg PUBLIC "-//W3C//DTD SVG 1.1//EN" "http://www.w3.org/Graphics/SVG/1.1/DTD/svg11.dtd">
<svg version="1.1" id="Capa_1" xmlns="http://www.w3.org/2000/svg" xmlns:xlink="http://www.w3.org/1999/xlink" x="0px" y="0px"
	 width="125px" height="155px" viewBox="7 -7.5 125 155" enable-background="new 7 -7.5 125 155" xml:space="preserve">
<g>
	<g>
		<path fill="#CCCCCC" d="M90.299,0H14.666v140h109.668V34.034L90.299,0z M91.666,7.966l24.701,24.701H91.666V7.966z
			 M19.332,135.334V4.667H87v32.667h32.666v98H19.332z"/>
	</g>
	<path fill="#CCCCCC" d="M107.85,95.844h-2.814V81.957c0-2.996-2.439-5.434-5.436-5.434h-8.09c-2.998,0-5.436,2.438-5.436,5.434
		v13.887h-7.191V68.102c0-2.997-2.439-5.436-5.436-5.436h-8.089c-2.998,0-5.438,2.438-5.438,5.436v27.742h-7.191V44.291
		c0-2.997-2.438-5.436-5.434-5.436h-8.09c-2.998,0-5.438,2.438-5.438,5.436v51.553h-2.621c-1.46,0-2.648,1.188-2.648,2.648
		c0,1.463,1.188,2.652,2.648,2.652h76.702c1.461,0,2.65-1.189,2.65-2.652C110.5,97.032,109.311,95.844,107.85,95.844z
		 M91.375,81.957c0-0.073,0.061-0.133,0.135-0.133h8.09c0.074,0,0.135,0.06,0.135,0.133v13.887h-8.359V81.957z M65.222,68.102
		c0-0.074,0.062-0.135,0.137-0.135h8.089c0.074,0,0.137,0.062,0.137,0.135v27.742h-8.362V68.102z M39.069,44.291
		c0-0.074,0.062-0.135,0.137-0.135h8.09c0.072,0,0.133,0.062,0.133,0.135v51.553h-8.359V44.291z"/>
</g>
</svg>
