<?xml version="1.0" encoding="utf-8"?>
<!-- Generator: Adobe Illustrator 16.0.0, SVG Export Plug-In . SVG Version: 6.00 Build 0)  -->
<!DOCTYPE svg PUBLIC "-//W3C//DTD SVG 1.1//EN" "http://www.w3.org/Graphics/SVG/1.1/DTD/svg11.dtd">
<svg version="1.1" id="Layer_1" xmlns="http://www.w3.org/2000/svg" xmlns:xlink="http://www.w3.org/1999/xlink" x="0px" y="0px"
	 width="50px" height="50px" viewBox="0 0 50 50" enable-background="new 0 0 50 50" xml:space="preserve">
<g>
	<path fill="#666666" d="M40.043,50C28.422,50,16.8,50,5.179,50c-0.595-0.232-0.796-0.676-0.796-1.303
		C4.392,32.898,4.391,17.101,4.381,1.302c0-0.626,0.203-1.069,0.798-1.302c8.756,0,17.513,0,26.27,0
		c0.269,0.205,0.566,0.381,0.804,0.618c2.677,2.664,5.338,5.342,8.019,8c0.399,0.397,0.574,0.818,0.572,1.382
		c-0.015,6.282-0.01,12.563-0.011,18.846c0,0.174,0,0.346,0,0.553c1.22,0,2.372-0.004,3.524,0.002
		c0.888,0.002,1.261,0.365,1.261,1.236c0.001,4.313,0,8.627-0.005,12.938c0,0.864-0.377,1.231-1.262,1.237
		c-0.992,0.006-1.985,0-2.979,0.002c-0.172,0-0.344,0.018-0.541,0.027c0,1.322-0.02,2.592,0.009,3.858
		C40.854,49.331,40.641,49.771,40.043,50z M38.832,44.812c-0.23,0-0.424,0-0.617,0c-7.193,0-14.387,0-21.581,0
		c-1.062,0-1.396-0.338-1.396-1.405c0-4.198,0.001-8.397,0.003-12.597c0-1.103,0.316-1.414,1.434-1.414
		c7.193,0,14.388-0.002,21.581-0.002c0.188,0,0.376,0,0.561,0c0-6.294,0-12.518,0-18.779c-0.219,0-0.396,0-0.573,0
		c-2.181,0.001-4.361,0-6.543,0.002c-1.165,0.001-1.464-0.296-1.466-1.477c-0.002-2.197-0.004-4.395-0.006-6.591
		c0-0.172-0.016-0.346-0.023-0.523c-7.967,0-15.883,0-23.809,0c0,15.333,0,30.626,0,45.953c10.821,0,21.618,0,32.437,0
		C38.832,46.93,38.832,45.911,38.832,44.812z M17.255,42.771c8.806,0,17.567,0,26.347,0c0-3.801,0-7.563,0-11.346
		c-8.797,0-17.56,0-26.347,0C17.255,35.214,17.255,38.967,17.255,42.771z M37.217,8.583C35.564,6.917,33.9,5.24,32.262,3.587
		c0,1.625,0,3.305,0,4.996C33.964,8.583,35.63,8.583,37.217,8.583z"/>
</g>
<g>
	<path fill="#666666" d="M21.691,40.662v-7.161c0-0.117,0.059-0.22,0.176-0.308s0.268-0.133,0.451-0.133h1.947
		c0.784,0,1.411,0.202,1.881,0.605c0.469,0.403,0.704,1.041,0.704,1.914v3.003c0,0.873-0.235,1.511-0.704,1.914
		c-0.47,0.403-1.097,0.604-1.881,0.604h-1.947c-0.184,0-0.334-0.043-0.451-0.131C21.75,40.882,21.691,40.779,21.691,40.662z
		 M23.121,39.848h1.145c0.77,0,1.154-0.422,1.154-1.265V35.58c0-0.844-0.385-1.266-1.154-1.266h-1.145V39.848z"/>
	<path fill="#666666" d="M27.983,38.648V35.58c0-0.873,0.232-1.511,0.698-1.914s1.091-0.605,1.876-0.605
		c0.784,0,1.411,0.202,1.881,0.605c0.469,0.403,0.704,1.041,0.704,1.914v3.068c0,0.873-0.235,1.512-0.704,1.914
		c-0.47,0.404-1.097,0.605-1.881,0.605c-0.785,0-1.41-0.201-1.876-0.605C28.216,40.16,27.983,39.521,27.983,38.648z M29.413,38.648
		c0,0.844,0.381,1.266,1.145,1.266c0.77,0,1.154-0.422,1.154-1.266V35.58c0-0.844-0.385-1.266-1.154-1.266
		c-0.764,0-1.145,0.422-1.145,1.266V38.648z"/>
	<path fill="#666666" d="M34.286,38.648V35.58c0-0.865,0.234-1.502,0.704-1.908c0.469-0.407,1.081-0.611,1.837-0.611
		c0.77,0,1.398,0.191,1.887,0.572c0.487,0.382,0.731,0.888,0.731,1.518c0,0.271-0.056,0.457-0.165,0.557
		c-0.11,0.099-0.294,0.148-0.55,0.148c-0.47,0-0.708-0.15-0.716-0.451c-0.007-0.096-0.016-0.178-0.027-0.248
		c-0.011-0.069-0.04-0.161-0.088-0.275c-0.048-0.113-0.108-0.209-0.182-0.285c-0.073-0.077-0.183-0.143-0.33-0.198
		c-0.146-0.055-0.318-0.083-0.517-0.083c-0.77,0-1.155,0.422-1.155,1.266v3.068c0,0.844,0.393,1.266,1.178,1.266
		c0.234,0,0.431-0.037,0.588-0.109c0.158-0.074,0.271-0.178,0.341-0.314c0.07-0.135,0.117-0.256,0.144-0.363
		c0.025-0.105,0.042-0.236,0.049-0.391c0.022-0.3,0.257-0.45,0.704-0.45c0.257,0,0.442,0.05,0.556,0.148
		c0.114,0.099,0.171,0.284,0.171,0.556c0,0.66-0.244,1.188-0.731,1.584c-0.488,0.396-1.12,0.594-1.897,0.594
		c-0.756,0-1.366-0.203-1.832-0.61S34.286,39.515,34.286,38.648z"/>
</g>
</svg>
