<?xml version="1.0" encoding="utf-8"?>
<!-- Generator: Adobe Illustrator 16.0.0, SVG Export Plug-In . SVG Version: 6.00 Build 0)  -->
<!DOCTYPE svg PUBLIC "-//W3C//DTD SVG 1.1//EN" "http://www.w3.org/Graphics/SVG/1.1/DTD/svg11.dtd">
<svg version="1.1" id="Capa_1" xmlns="http://www.w3.org/2000/svg" xmlns:xlink="http://www.w3.org/1999/xlink" x="0px" y="0px"
	 width="406px" height="512px" viewBox="0 0 406 512" enable-background="new 0 0 406 512" xml:space="preserve">
<g>
	<path fill="#CCCCCC" d="M87.982,200.533c0,4.719,3.822,8.533,8.533,8.533H309.85c4.711,0,8.533-3.814,8.533-8.533
		c0-4.719-3.822-8.533-8.533-8.533H96.517C91.806,192,87.982,195.814,87.982,200.533z"/>
	<path fill="#CCCCCC" d="M96.517,140.8h85.333c4.711,0,8.533-3.814,8.533-8.533c0-4.719-3.822-8.533-8.533-8.533H96.517
		c-4.711,0-8.533,3.814-8.533,8.533C87.983,136.986,91.806,140.8,96.517,140.8z"/>
	<path fill="#CCCCCC" d="M309.85,260.268H96.517c-4.711,0-8.533,3.813-8.533,8.532c0,4.72,3.822,8.533,8.533,8.533H309.85
		c4.711,0,8.533-3.813,8.533-8.533C318.383,264.081,314.561,260.268,309.85,260.268z"/>
	<path fill="#CCCCCC" d="M309.85,328.534H96.517c-4.711,0-8.533,3.813-8.533,8.532c0,4.72,3.822,8.533,8.533,8.533H309.85
		c4.711,0,8.533-3.813,8.533-8.533C318.383,332.348,314.561,328.534,309.85,328.534z"/>
	<path fill="#CCCCCC" d="M309.85,396.801H96.517c-4.711,0-8.533,3.813-8.533,8.533c0,4.719,3.822,8.533,8.533,8.533H309.85
		c4.711,0,8.533-3.814,8.533-8.533C318.383,400.614,314.561,396.801,309.85,396.801z"/>
	<path fill="#CCCCCC" d="M326.916,86.067l-64.732-64.734H19.717v409.601H19.35V448h0.367v42.667H386.65V145.801l-42.666-42.667
		L326.916,86.067z M369.584,473.601H36.783V448V38.4h213.334v119.467h119.467V473.601z M357.518,140.8h-90.334V50.466l76.802,76.801
		L357.518,140.8z"/>
</g>
</svg>
