<?xml version="1.0" encoding="utf-8"?>
<!-- Generator: Adobe Illustrator 16.0.0, SVG Export Plug-In . SVG Version: 6.00 Build 0)  -->
<!DOCTYPE svg PUBLIC "-//W3C//DTD SVG 1.1//EN" "http://www.w3.org/Graphics/SVG/1.1/DTD/svg11.dtd">
<svg version="1.1" id="Layer_1" xmlns="http://www.w3.org/2000/svg" xmlns:xlink="http://www.w3.org/1999/xlink" x="0px" y="0px"
	 width="50px" height="50px" viewBox="0 0 50 50" enable-background="new 0 0 50 50" xml:space="preserve">
<g>
	<path fill="#53C877" d="M40.043,50C28.422,50,16.8,50,5.179,50c-0.595-0.233-0.796-0.676-0.796-1.303
		C4.392,32.898,4.391,17.101,4.381,1.302c0-0.626,0.203-1.069,0.798-1.302c8.756,0,17.513,0,26.27,0
		c0.269,0.205,0.566,0.381,0.804,0.618c2.676,2.664,5.338,5.342,8.019,8c0.399,0.397,0.574,0.818,0.572,1.382
		c-0.015,6.282-0.01,12.563-0.011,18.846c0,0.173,0,0.345,0,0.552c1.219,0,2.372-0.003,3.525,0.002
		c0.887,0.003,1.26,0.366,1.26,1.237c0.001,4.313,0,8.626-0.004,12.938c0,0.865-0.377,1.231-1.263,1.237
		c-0.992,0.006-1.985,0-2.978,0.003c-0.172,0-0.343,0.017-0.541,0.027c0,1.322-0.019,2.591,0.009,3.858
		C40.854,49.331,40.641,49.771,40.043,50z M38.832,44.813c-0.231,0-0.424,0-0.617,0c-7.193,0-14.387,0-21.581,0
		c-1.062,0-1.396-0.338-1.396-1.406c0-4.198,0.001-8.397,0.003-12.596c0-1.103,0.316-1.414,1.434-1.414
		c7.193-0.001,14.388-0.002,21.581-0.002c0.188,0,0.376,0,0.561,0c0-6.295,0-12.518,0-18.78c-0.219,0-0.396,0-0.574,0
		c-2.181,0.001-4.361,0-6.543,0.002c-1.165,0.001-1.464-0.296-1.466-1.477c-0.002-2.197-0.003-4.395-0.006-6.591
		c0-0.172-0.015-0.346-0.023-0.523c-7.967,0-15.883,0-23.809,0c0,15.333,0,30.626,0,45.953c10.821,0,21.617,0,32.437,0
		C38.832,46.929,38.832,45.911,38.832,44.813z M17.255,42.771c8.805,0,17.568,0,26.346,0c0-3.8,0-7.563,0-11.345
		c-8.797,0-17.559,0-26.346,0C17.255,35.214,17.255,38.967,17.255,42.771z M37.217,8.583C35.564,6.917,33.9,5.24,32.262,3.587
		c0,1.625,0,3.305,0,4.996C33.964,8.583,35.63,8.583,37.217,8.583z"/>
</g>
<g>
	<path fill="#53C877" d="M19.299,40.146c0-0.071,0.029-0.156,0.085-0.256l1.843-3.005l-1.779-2.993
		c-0.064-0.107-0.096-0.206-0.096-0.299c0-0.178,0.094-0.33,0.282-0.458c0.188-0.128,0.389-0.192,0.602-0.192
		c0.199,0,0.352,0.1,0.458,0.299l1.449,2.61l1.449-2.61c0.113-0.199,0.27-0.299,0.469-0.299c0.213,0,0.414,0.064,0.602,0.192
		s0.282,0.28,0.282,0.458c0,0.093-0.032,0.191-0.096,0.299l-1.779,2.993l1.843,3.005c0.05,0.093,0.075,0.178,0.075,0.256
		c0,0.185-0.1,0.346-0.299,0.485c-0.199,0.138-0.401,0.207-0.607,0.207c-0.171,0-0.295-0.074-0.373-0.224l-1.566-2.739l-1.556,2.739
		c-0.085,0.149-0.213,0.224-0.383,0.224c-0.199,0-0.399-0.069-0.602-0.207C19.401,40.491,19.299,40.33,19.299,40.146z"/>
	<path fill="#53C877" d="M25.778,40.348v-6.926c0-0.142,0.066-0.248,0.201-0.319c0.134-0.07,0.3-0.106,0.492-0.106
		c0.19,0,0.353,0.036,0.489,0.106c0.135,0.071,0.203,0.178,0.203,0.319v6.148h2.6c0.127,0,0.229,0.061,0.303,0.181
		c0.076,0.121,0.113,0.263,0.113,0.426s-0.037,0.306-0.113,0.427c-0.074,0.12-0.176,0.181-0.303,0.181h-3.378
		c-0.164,0-0.307-0.038-0.426-0.117C25.838,40.589,25.778,40.482,25.778,40.348z"/>
	<path fill="#53C877" d="M30.552,39.559c0-0.163,0.061-0.327,0.186-0.495c0.123-0.166,0.264-0.25,0.42-0.25
		c0.094,0,0.197,0.044,0.316,0.133c0.115,0.088,0.229,0.186,0.34,0.293c0.109,0.107,0.268,0.205,0.475,0.294
		c0.205,0.088,0.432,0.133,0.682,0.133c0.34,0,0.625-0.078,0.852-0.234c0.229-0.157,0.342-0.387,0.342-0.692
		c0-0.214-0.062-0.403-0.188-0.57s-0.287-0.305-0.49-0.415c-0.201-0.11-0.424-0.217-0.666-0.319
		c-0.24-0.104-0.484-0.219-0.729-0.347c-0.246-0.128-0.469-0.271-0.672-0.432c-0.201-0.161-0.365-0.373-0.49-0.64
		c-0.123-0.266-0.186-0.569-0.186-0.911c0-0.382,0.076-0.719,0.229-1.012c0.152-0.291,0.357-0.519,0.613-0.68
		c0.256-0.163,0.529-0.282,0.82-0.358c0.291-0.075,0.6-0.113,0.926-0.113c0.186,0,0.381,0.014,0.588,0.038
		c0.205,0.026,0.422,0.068,0.654,0.126c0.23,0.059,0.418,0.15,0.564,0.274c0.145,0.123,0.219,0.27,0.219,0.438
		c0,0.158-0.051,0.321-0.148,0.49c-0.102,0.17-0.236,0.254-0.406,0.254c-0.064,0-0.238-0.067-0.521-0.203
		c-0.285-0.134-0.6-0.202-0.949-0.202c-0.383,0-0.68,0.073-0.889,0.219c-0.211,0.146-0.314,0.346-0.314,0.602
		c0,0.206,0.084,0.386,0.256,0.538c0.17,0.152,0.381,0.277,0.633,0.373c0.254,0.096,0.525,0.217,0.82,0.362s0.568,0.304,0.82,0.475
		c0.254,0.17,0.465,0.417,0.635,0.739c0.17,0.324,0.256,0.702,0.256,1.136c0,0.729-0.232,1.29-0.697,1.687
		c-0.467,0.396-1.078,0.593-1.838,0.593c-0.676,0-1.254-0.138-1.738-0.415C30.792,40.188,30.552,39.886,30.552,39.559z"/>
	<path fill="#53C877" d="M35.995,40.146c0-0.071,0.027-0.156,0.086-0.256l1.842-3.005l-1.779-2.993
		c-0.062-0.107-0.096-0.206-0.096-0.299c0-0.178,0.094-0.33,0.283-0.458c0.188-0.128,0.389-0.192,0.602-0.192
		c0.199,0,0.352,0.1,0.459,0.299l1.447,2.61l1.449-2.61c0.113-0.199,0.27-0.299,0.469-0.299c0.213,0,0.414,0.064,0.604,0.192
		c0.188,0.128,0.281,0.28,0.281,0.458c0,0.093-0.031,0.191-0.096,0.299l-1.779,2.993l1.844,3.005
		c0.049,0.093,0.074,0.178,0.074,0.256c0,0.185-0.1,0.346-0.299,0.485c-0.199,0.138-0.4,0.207-0.607,0.207
		c-0.17,0-0.293-0.074-0.373-0.224l-1.566-2.739l-1.555,2.739c-0.086,0.149-0.213,0.224-0.383,0.224c-0.199,0-0.4-0.069-0.604-0.207
		C36.095,40.491,35.995,40.33,35.995,40.146z"/>
</g>
</svg>
