<?xml version="1.0" encoding="utf-8"?>
<!-- Generator: Adobe Illustrator 16.0.0, SVG Export Plug-In . SVG Version: 6.00 Build 0)  -->
<!DOCTYPE svg PUBLIC "-//W3C//DTD SVG 1.1//EN" "http://www.w3.org/Graphics/SVG/1.1/DTD/svg11.dtd">
<svg version="1.1" id="Capa_1" xmlns="http://www.w3.org/2000/svg" xmlns:xlink="http://www.w3.org/1999/xlink" x="0px" y="0px"
	 width="406px" height="512px" viewBox="51.5 0 406 512" enable-background="new 51.5 0 406 512" xml:space="preserve">
<g>
	<path fill="none" d="M301.617,38.4H88.283V448v25.601h332.801V157.867H301.617V38.4z M148.017,123.733h85.333
		c4.711,0,8.533,3.814,8.533,8.533s-3.822,8.533-8.533,8.533h-85.333c-4.711,0-8.533-3.814-8.533-8.533
		S143.306,123.733,148.017,123.733z M361.35,413.867H148.017c-4.711,0-8.533-3.814-8.533-8.533c0-4.72,3.822-8.533,8.533-8.533
		H361.35c4.711,0,8.533,3.813,8.533,8.533C369.883,410.053,366.061,413.867,361.35,413.867z M361.35,345.601H148.017
		c-4.711,0-8.533-3.814-8.533-8.533s3.822-8.533,8.533-8.533H361.35c4.711,0,8.533,3.814,8.533,8.533
		S366.061,345.601,361.35,345.601z M361.35,277.333H148.017c-4.711,0-8.533-3.813-8.533-8.533c0-4.719,3.822-8.533,8.533-8.533
		H361.35c4.711,0,8.533,3.814,8.533,8.533C369.883,273.52,366.061,277.333,361.35,277.333z M361.35,192
		c4.711,0,8.533,3.814,8.533,8.533s-3.822,8.533-8.533,8.533H148.017c-4.711,0-8.533-3.814-8.533-8.533s3.822-8.533,8.533-8.533
		H361.35z"/>
	<polygon fill="none" points="318.684,50.466 318.684,140.8 409.018,140.8 395.484,127.267 	"/>
	<path fill="#666666" d="M139.483,200.533c0,4.719,3.822,8.533,8.533,8.533H361.35c4.711,0,8.533-3.814,8.533-8.533
		S366.061,192,361.35,192H148.017C143.306,192,139.483,195.814,139.483,200.533z"/>
	<path fill="#666666" d="M148.017,140.8h85.333c4.711,0,8.533-3.814,8.533-8.533s-3.822-8.533-8.533-8.533h-85.333
		c-4.711,0-8.533,3.814-8.533,8.533S143.306,140.8,148.017,140.8z"/>
	<path fill="#666666" d="M361.35,260.267H148.017c-4.711,0-8.533,3.814-8.533,8.533c0,4.72,3.822,8.533,8.533,8.533H361.35
		c4.711,0,8.533-3.813,8.533-8.533C369.883,264.081,366.061,260.267,361.35,260.267z"/>
	<path fill="#666666" d="M361.35,328.534H148.017c-4.711,0-8.533,3.814-8.533,8.533s3.822,8.533,8.533,8.533H361.35
		c4.711,0,8.533-3.814,8.533-8.533S366.061,328.534,361.35,328.534z"/>
	<path fill="#666666" d="M361.35,396.801H148.017c-4.711,0-8.533,3.813-8.533,8.533c0,4.719,3.822,8.533,8.533,8.533H361.35
		c4.711,0,8.533-3.814,8.533-8.533C369.883,400.614,366.061,396.801,361.35,396.801z"/>
	<path fill="#666666" d="M378.416,86.067l-64.732-64.734H71.217v409.601H70.85V448h0.367v42.667H438.15V145.801l-42.666-42.667
		L378.416,86.067z M421.084,473.601H88.283V448V38.4h213.334v119.467h119.467V473.601z M409.018,140.8h-90.334V50.466l76.801,76.801
		L409.018,140.8z"/>
</g>
</svg>
