<?xml version="1.0" encoding="utf-8"?>
<!-- Generator: Adobe Illustrator 16.0.0, SVG Export Plug-In . SVG Version: 6.00 Build 0)  -->
<!DOCTYPE svg PUBLIC "-//W3C//DTD SVG 1.1//EN" "http://www.w3.org/Graphics/SVG/1.1/DTD/svg11.dtd">
<svg version="1.1" id="Capa_1" xmlns="http://www.w3.org/2000/svg" xmlns:xlink="http://www.w3.org/1999/xlink" x="0px" y="0px"
	 width="140px" height="140px" viewBox="188.667 0 140 140" enable-background="new 188.667 0 140 140" xml:space="preserve">
<g>
	<path fill="#999999" d="M191.454,128.67h134.429c1.536,0,2.784-1.248,2.784-2.785V45.227c0-1.537-1.248-2.784-2.784-2.784H191.454
		c-1.537,0-2.784,1.247-2.784,2.784v80.658C188.67,127.422,189.917,128.67,191.454,128.67z M194.238,48.01h128.86v75.09h-128.86
		V48.01z"/>
	<path fill="#999999" d="M191.454,38.745c1.537,0,2.784-1.248,2.784-2.784V22.144l3.699-5.242h38.239l20.629,18.608
		c0.512,0.462,1.176,0.715,1.865,0.715h56.324l8.445,2.411c0.258,0.072,0.514,0.108,0.767,0.108c1.211,0,2.325-0.799,2.676-2.021
		c0.423-1.479-0.435-3.018-1.913-3.441l-8.818-2.519c-0.248-0.072-0.508-0.106-0.764-0.106h-55.65l-20.631-18.611
		c-0.512-0.459-1.174-0.715-1.864-0.715h-40.749c-0.905,0-1.755,0.439-2.274,1.177l-5.042,7.141c-0.331,0.471-0.51,1.031-0.51,1.607
		v14.703C188.67,37.501,189.917,38.745,191.454,38.745z"/>
</g>
<path fill="#999999" d="M262.068,82.589h-6.8c-2.473,0-4.475-2.003-4.475-4.473c0-2.474,2.002-4.477,4.475-4.477h11.968
	c1.633,0,2.967-1.337,2.967-2.967c0-1.634-1.334-2.97-2.967-2.97h-5.613v-4.129c0-1.632-1.335-2.968-2.968-2.968
	c-1.631,0-2.968,1.336-2.968,2.968v4.129h-0.419c-5.738,0-10.41,4.675-10.41,10.413c0,5.733,4.672,10.41,10.41,10.41h6.8
	c2.473,0,4.477,2.001,4.477,4.475c0,2.475-2.004,4.476-4.477,4.476h-12.19c-1.634,0-2.969,1.334-2.969,2.969
	c0,1.632,1.335,2.967,2.969,2.967h5.834v4.227c0,1.635,1.337,2.967,2.969,2.967c1.631,0,2.968-1.332,2.968-2.967v-4.227h0.495
	c0.024,0,0.049,0,0.073,0c5.688-0.072,10.262-4.725,10.262-10.411C272.479,87.264,267.805,82.589,262.068,82.589z"/>
</svg>
