<?xml version="1.0" encoding="utf-8"?>
<!-- Generator: Adobe Illustrator 16.0.0, SVG Export Plug-In . SVG Version: 6.00 Build 0)  -->
<!DOCTYPE svg PUBLIC "-//W3C//DTD SVG 1.1//EN" "http://www.w3.org/Graphics/SVG/1.1/DTD/svg11.dtd">
<svg version="1.1" id="Capa_1" xmlns="http://www.w3.org/2000/svg" xmlns:xlink="http://www.w3.org/1999/xlink" x="0px" y="0px"
	 width="140px" height="140px" viewBox="373.334 0 140 140" enable-background="new 373.334 0 140 140" xml:space="preserve">
<g>
	<path fill="#999999" d="M376.121,128.67H510.55c1.536,0,2.784-1.248,2.784-2.785V45.227c0-1.537-1.248-2.784-2.784-2.784H376.121
		c-1.537,0-2.784,1.247-2.784,2.784v80.658C373.337,127.422,374.584,128.67,376.121,128.67z M378.905,48.01h128.86v75.09h-128.86
		V48.01z"/>
	<path fill="#999999" d="M376.121,38.745c1.537,0,2.784-1.248,2.784-2.784V22.144l3.699-5.242h38.239l20.629,18.608
		c0.512,0.462,1.176,0.715,1.865,0.715h56.324l8.445,2.411c0.258,0.072,0.514,0.108,0.767,0.108c1.211,0,2.325-0.799,2.676-2.021
		c0.423-1.479-0.435-3.018-1.913-3.441l-8.818-2.519c-0.248-0.072-0.508-0.106-0.764-0.106h-55.65l-20.631-18.611
		c-0.512-0.459-1.174-0.715-1.864-0.715H381.16c-0.905,0-1.755,0.439-2.274,1.177l-5.042,7.141c-0.331,0.471-0.51,1.031-0.51,1.607
		v14.703C373.337,37.501,374.584,38.745,376.121,38.745z"/>
</g>
<path fill="#999999" d="M478.283,106.35h-2.259V95.204c0-2.407-1.957-4.362-4.364-4.362h-6.494c-2.405,0-4.362,1.955-4.362,4.362
	v11.146h-5.773V84.082c0-2.404-1.957-4.364-4.361-4.364h-6.494c-2.407,0-4.364,1.957-4.364,4.364v22.268h-5.772v-41.38
	c0-2.406-1.958-4.364-4.362-4.364h-6.494c-2.406,0-4.365,1.957-4.365,4.364v41.38h-2.104c-1.171,0-2.125,0.955-2.125,2.127
	c0,1.174,0.954,2.129,2.125,2.129h61.57c1.172,0,2.127-0.955,2.127-2.129C480.411,107.305,479.456,106.35,478.283,106.35z
	 M465.059,95.204c0-0.059,0.049-0.106,0.107-0.106h6.494c0.061,0,0.109,0.048,0.109,0.106v11.146h-6.711V95.204L465.059,95.204z
	 M444.067,84.082c0-0.059,0.049-0.108,0.109-0.108h6.492c0.06,0,0.109,0.05,0.109,0.108v22.268h-6.711V84.082L444.067,84.082z
	 M423.073,64.969c0-0.06,0.049-0.109,0.109-0.109h6.493c0.059,0,0.107,0.05,0.107,0.109v41.38h-6.71V64.969L423.073,64.969z"/>
</svg>
