<?xml version="1.0" encoding="utf-8"?>
<!-- Generator: Adobe Illustrator 16.0.0, SVG Export Plug-In . SVG Version: 6.00 Build 0)  -->
<!DOCTYPE svg PUBLIC "-//W3C//DTD SVG 1.1//EN" "http://www.w3.org/Graphics/SVG/1.1/DTD/svg11.dtd">
<svg version="1.1" id="Capa_1" xmlns="http://www.w3.org/2000/svg" xmlns:xlink="http://www.w3.org/1999/xlink" x="0px" y="0px"
	 width="140px" height="140px" viewBox="0 0 140 140" enable-background="new 0 0 140 140" xml:space="preserve">
<g>
	<path fill="#999999" d="M2.787,128.67h134.429c1.536,0,2.784-1.248,2.784-2.785V45.227c0-1.537-1.248-2.784-2.784-2.784H2.787
		c-1.537,0-2.784,1.247-2.784,2.784v80.658C0.003,127.422,1.25,128.67,2.787,128.67z M5.571,48.01h128.86v75.09H5.571V48.01z"/>
	<path fill="#999999" d="M2.787,38.745c1.537,0,2.784-1.248,2.784-2.784V22.144l3.699-5.242H47.51L68.139,35.51
		c0.512,0.462,1.176,0.715,1.865,0.715h56.324l8.445,2.411c0.258,0.072,0.514,0.108,0.767,0.108c1.211,0,2.325-0.799,2.676-2.021
		c0.423-1.479-0.435-3.018-1.913-3.441l-8.818-2.519c-0.248-0.072-0.508-0.106-0.764-0.106H71.07L50.439,12.046
		c-0.512-0.459-1.174-0.715-1.864-0.715H7.826c-0.905,0-1.755,0.439-2.274,1.177L0.51,19.649C0.179,20.12,0,20.68,0,21.256v14.703
		C0.003,37.501,1.25,38.745,2.787,38.745z"/>
</g>
</svg>
