<?xml version="1.0" encoding="utf-8"?>
<!-- Generator: Adobe Illustrator 16.0.0, SVG Export Plug-In . SVG Version: 6.00 Build 0)  -->
<!DOCTYPE svg PUBLIC "-//W3C//DTD SVG 1.1//EN" "http://www.w3.org/Graphics/SVG/1.1/DTD/svg11.dtd">
<svg version="1.1" id="Layer_1" xmlns="http://www.w3.org/2000/svg" xmlns:xlink="http://www.w3.org/1999/xlink" x="0px" y="0px"
	 width="53px" height="50px" viewBox="0 0 53 50" enable-background="new 0 0 53 50" xml:space="preserve">
<g>
	<g>
		<path fill="#A7A9AC" d="M27.104,26.239c-5.652,0-10.25,4.598-10.25,10.25s4.598,10.25,10.25,10.25
			c5.652,0,10.25-4.598,10.25-10.25S32.756,26.239,27.104,26.239z M27.104,45.141c-4.771,0-8.651-3.881-8.651-8.651
			s3.881-8.651,8.651-8.651s8.651,3.881,8.651,8.651S31.874,45.141,27.104,45.141z"/>
		<rect x="21.537" y="35.648" fill="#A7A9AC" width="11.133" height="1.682"/>
	</g>
	<path fill="#A7A9AC" d="M43.979,16.756c-0.439-7.5-6.622-13.495-14.076-13.495c-4.525,0-8.906,2.22-11.622,5.84
		c-0.062-0.032-0.129-0.055-0.192-0.086c-0.163-0.079-0.328-0.154-0.497-0.222c-0.099-0.039-0.198-0.074-0.299-0.108
		c-0.164-0.058-0.33-0.108-0.5-0.154c-0.1-0.027-0.199-0.055-0.3-0.078c-0.184-0.041-0.37-0.073-0.559-0.101
		c-0.087-0.014-0.174-0.03-0.262-0.04c-0.276-0.031-0.556-0.051-0.84-0.051c-4.135,0-7.5,3.364-7.5,7.5
		c0,0.107,0.007,0.213,0.014,0.317C3.881,17.968,1.5,21.927,1.5,25.89c0,5.902,4.802,10.704,10.704,10.704
		c0.46,0,0.833-0.372,0.833-0.832c0-0.461-0.373-0.834-0.833-0.834c-4.983,0-9.037-4.055-9.037-9.038
		c0-3.462,2.254-7.056,5.359-8.545L9,17.119v-0.525c0-0.103,0.007-0.207,0.013-0.312l0.007-0.144l-0.01-0.169
		C9.005,15.9,9,15.831,9,15.761c0-3.216,2.616-5.833,5.833-5.833c0.258,0,0.512,0.022,0.765,0.056c0.064,0.008,0.13,0.02,0.195,0.03
		c0.222,0.036,0.441,0.085,0.657,0.146c0.029,0.008,0.059,0.014,0.088,0.022c0.237,0.072,0.47,0.165,0.696,0.268
		c0.059,0.026,0.115,0.055,0.173,0.083c0.201,0.1,0.397,0.208,0.588,0.332c1.604,1.041,2.672,2.845,2.672,4.896
		c0,0.461,0.373,0.833,0.833,0.833s0.833-0.372,0.833-0.833c0-2.295-1.038-4.349-2.666-5.726c2.388-3.125,6.323-5.107,10.236-5.107
		c6.454,0,11.815,5.112,12.373,11.573c-0.852-0.061-2.127-0.091-3.402,0.104c-0.455,0.069-0.768,0.494-0.698,0.949
		c0.062,0.412,0.418,0.708,0.822,0.708c0.042,0,0.084-0.003,0.127-0.01c1.854-0.279,3.787-0.018,3.903-0.002
		c3.88,0.737,6.805,4.312,6.805,8.321c0,4.607-3.749,8.356-8.356,8.356c-0.46,0-0.833,0.373-0.833,0.834
		c0,0.46,0.373,0.832,0.833,0.832c5.526,0,10.023-4.496,10.023-10.022C51.5,21.997,48.311,17.895,43.979,16.756z"/>
</g>
</svg>
