<?xml version="1.0" encoding="utf-8"?>
<!-- Generator: Adobe Illustrator 16.0.0, SVG Export Plug-In . SVG Version: 6.00 Build 0)  -->
<!DOCTYPE svg PUBLIC "-//W3C//DTD SVG 1.1//EN" "http://www.w3.org/Graphics/SVG/1.1/DTD/svg11.dtd">
<svg version="1.1" id="Capa_1" xmlns="http://www.w3.org/2000/svg" xmlns:xlink="http://www.w3.org/1999/xlink" x="0px" y="0px"
	 width="50px" height="50px" viewBox="0 0 50 50" enable-background="new 0 0 50 50" xml:space="preserve">
<g>
	<path fill="#CCCCCC" d="M25,0C11.215,0,0,11.215,0,25s11.215,25,25,25c13.785,0,25-11.215,25-25S38.785,0,25,0z M25,46.923
		C12.912,46.923,3.077,37.088,3.077,25C3.077,12.912,12.912,3.077,25,3.077c12.088,0,21.923,9.834,21.923,21.923
		C46.923,37.088,37.088,46.923,25,46.923z"/>
	<circle fill="#CCCCCC" cx="25" cy="15.031" r="2.573"/>
	<path fill="#CCCCCC" d="M25,21.802c-0.85,0-1.539,0.689-1.539,1.538v13.077c0,0.849,0.689,1.538,1.539,1.538
		s1.539-0.689,1.539-1.538V23.34C26.539,22.49,25.85,21.802,25,21.802z"/>
</g>
</svg>
