<?xml version="1.0" encoding="utf-8"?>
<!-- Generator: Adobe Illustrator 16.0.0, SVG Export Plug-In . SVG Version: 6.00 Build 0)  -->
<!DOCTYPE svg PUBLIC "-//W3C//DTD SVG 1.1//EN" "http://www.w3.org/Graphics/SVG/1.1/DTD/svg11.dtd">
<svg version="1.1" id="Capa_1" xmlns="http://www.w3.org/2000/svg" xmlns:xlink="http://www.w3.org/1999/xlink" x="0px" y="0px"
	 width="1500px" height="1500px" viewBox="0 0 1500 1500" enable-background="new 0 0 1500 1500" xml:space="preserve">
<g>
	<path fill="#1E201D" d="M53.028,366.053C23.483,366.053,0,341.854,0,312.309c0-29.544,23.483-53.027,53.028-53.027h1393.181
		c29.544,0,53.791,23.483,53.791,53.027c0,29.545-24.246,53.792-53.791,53.792H53.028V366.053z"/>
	<path fill="#1E201D" d="M1125,1186.926c0-29.543-24.247-53.026-53.791-53.026H428.028c-29.545,0-53.028,23.483-53.028,53.026
		c0,29.545,23.483,53.744,53.028,53.744v0.049h643.181C1100.754,1240.719,1125,1216.471,1125,1186.926z"/>
	<path fill="#1E201D" d="M1254.248,696.591h-375H611.066h-375c-29.545,0-53.028,23.483-53.028,53.026
		c0,29.545,23.483,53.744,53.028,53.744v0.049h375h268.182h375c29.545,0,53.791-24.248,53.791-53.793
		C1308.039,720.074,1283.791,696.591,1254.248,696.591z"/>
</g>
</svg>
