<?xml version="1.0" encoding="utf-8"?>
<!-- Generator: Adobe Illustrator 16.0.0, SVG Export Plug-In . SVG Version: 6.00 Build 0)  -->
<!DOCTYPE svg PUBLIC "-//W3C//DTD SVG 1.1//EN" "http://www.w3.org/Graphics/SVG/1.1/DTD/svg11.dtd">
<svg version="1.1" id="Capa_1" xmlns="http://www.w3.org/2000/svg" xmlns:xlink="http://www.w3.org/1999/xlink" x="0px" y="0px"
	 width="125px" height="155px" viewBox="0 0 125 155" enable-background="new 0 0 125 155" xml:space="preserve">
<g>
	<g>
		<path fill="#FF9500" d="M83.299,7.5H7.666v140h109.668V41.534L83.299,7.5z M84.666,15.466l24.701,24.701H84.666V15.466z
			 M12.332,142.834V12.167H80v32.667h32.666v98H12.332z"/>
	</g>
</g>
<path fill="#FF9500" d="M66.58,82.845h-8.16c-2.967,0-5.369-2.403-5.369-5.369c0-2.967,2.402-5.373,5.369-5.373h14.362
	c1.959,0,3.56-1.602,3.56-3.559c0-1.96-1.601-3.562-3.56-3.562h-6.736v-4.955c0-1.959-1.603-3.562-3.562-3.562
	c-1.957,0-3.561,1.603-3.561,3.562v4.955H58.42c-6.885,0-12.492,5.61-12.492,12.495c0,6.88,5.607,12.492,12.492,12.492h8.16
	c2.968,0,5.372,2.402,5.372,5.369c0,2.969-2.404,5.371-5.372,5.371H51.951c-1.959,0-3.562,1.602-3.562,3.562
	c0,1.957,1.603,3.559,3.562,3.559h7.002v5.074c0,1.961,1.604,3.561,3.562,3.561c1.958,0,3.561-1.6,3.561-3.561v-5.074h0.594
	c0.03,0,0.059,0,0.089,0c6.825-0.086,12.313-5.668,12.313-12.492C79.072,88.454,73.464,82.845,66.58,82.845z"/>
</svg>
