<?xml version="1.0" encoding="utf-8"?>
<!-- Generator: Adobe Illustrator 16.0.0, SVG Export Plug-In . SVG Version: 6.00 Build 0)  -->
<!DOCTYPE svg PUBLIC "-//W3C//DTD SVG 1.1//EN" "http://www.w3.org/Graphics/SVG/1.1/DTD/svg11.dtd">
<svg version="1.1" id="Layer_1" xmlns="http://www.w3.org/2000/svg" xmlns:xlink="http://www.w3.org/1999/xlink" x="0px" y="0px"
	 width="50px" height="50px" viewBox="0 0 50 50" enable-background="new 0 0 50 50" xml:space="preserve">
<g>
	<path fill="#D5514E" d="M40.043,50C28.422,50,16.8,50,5.179,50c-0.595-0.233-0.796-0.676-0.796-1.303
		C4.392,32.898,4.391,17.101,4.381,1.302c0-0.626,0.203-1.069,0.798-1.302c8.756,0,17.513,0,26.27,0
		c0.269,0.205,0.566,0.381,0.804,0.618c2.676,2.664,5.338,5.342,8.019,8c0.399,0.397,0.574,0.818,0.572,1.382
		c-0.015,6.282-0.01,12.563-0.011,18.846c0,0.173,0,0.345,0,0.552c1.219,0,2.372-0.003,3.525,0.002
		c0.887,0.003,1.26,0.366,1.26,1.237c0.001,4.313,0,8.626-0.004,12.938c0,0.865-0.377,1.231-1.263,1.237
		c-0.992,0.006-1.985,0-2.978,0.003c-0.172,0-0.343,0.017-0.541,0.027c0,1.322-0.019,2.591,0.009,3.858
		C40.854,49.331,40.641,49.771,40.043,50z M38.832,44.813c-0.231,0-0.424,0-0.617,0c-7.193,0-14.387,0-21.581,0
		c-1.062,0-1.396-0.338-1.396-1.406c0-4.198,0.001-8.397,0.003-12.596c0-1.103,0.316-1.414,1.434-1.414
		c7.193-0.001,14.388-0.002,21.581-0.002c0.188,0,0.376,0,0.561,0c0-6.295,0-12.518,0-18.78c-0.219,0-0.396,0-0.574,0
		c-2.181,0.001-4.361,0-6.543,0.002c-1.165,0.001-1.464-0.296-1.466-1.477c-0.002-2.197-0.003-4.395-0.006-6.591
		c0-0.172-0.015-0.346-0.023-0.523c-7.967,0-15.883,0-23.809,0c0,15.333,0,30.626,0,45.953c10.821,0,21.617,0,32.437,0
		C38.832,46.929,38.832,45.911,38.832,44.813z M17.255,42.771c8.805,0,17.568,0,26.346,0c0-3.8,0-7.563,0-11.345
		c-8.797,0-17.559,0-26.346,0C17.255,35.214,17.255,38.967,17.255,42.771z M37.217,8.583C35.564,6.917,33.9,5.24,32.262,3.587
		c0,1.625,0,3.305,0,4.996C33.964,8.583,35.63,8.583,37.217,8.583z"/>
</g>
<g>
	<path fill="#D5514E" d="M22.702,40.65v-7.149c0-0.117,0.05-0.221,0.148-0.309s0.229-0.132,0.391-0.132h2.211
		c0.755,0,1.36,0.2,1.814,0.6c0.455,0.399,0.683,1.024,0.683,1.875v0.066c0,0.858-0.236,1.489-0.71,1.892
		c-0.473,0.403-1.098,0.605-1.875,0.605h-1.232v2.552c0,0.14-0.071,0.25-0.214,0.33c-0.144,0.081-0.311,0.121-0.501,0.121
		c-0.198,0-0.367-0.04-0.506-0.121C22.771,40.9,22.702,40.79,22.702,40.65z M24.132,36.977h1.232c0.366,0,0.65-0.106,0.853-0.319
		c0.201-0.212,0.302-0.527,0.302-0.945v-0.133c0-0.418-0.101-0.732-0.302-0.945c-0.202-0.213-0.486-0.319-0.853-0.319h-1.232V36.977
		z"/>
	<path fill="#D5514E" d="M28.829,40.661v-7.16c0-0.117,0.059-0.221,0.176-0.309s0.268-0.132,0.451-0.132h1.947
		c0.784,0,1.411,0.202,1.881,0.605c0.469,0.403,0.704,1.041,0.704,1.913v3.004c0,0.872-0.235,1.511-0.704,1.913
		c-0.47,0.404-1.097,0.605-1.881,0.605h-1.947c-0.184,0-0.334-0.044-0.451-0.132S28.829,40.779,28.829,40.661z M30.259,39.848h1.145
		c0.77,0,1.154-0.422,1.154-1.265v-3.004c0-0.843-0.385-1.265-1.154-1.265h-1.145V39.848z"/>
	<path fill="#D5514E" d="M35.209,40.65v-7.139c0-0.14,0.062-0.249,0.187-0.33c0.125-0.081,0.271-0.121,0.44-0.121h3.839
		c0.146,0,0.257,0.061,0.33,0.182s0.11,0.266,0.11,0.435c0,0.176-0.039,0.326-0.116,0.451c-0.077,0.124-0.185,0.187-0.324,0.187
		h-3.036v2.2h1.684c0.139,0,0.247,0.055,0.324,0.165s0.115,0.246,0.115,0.407c0,0.146-0.038,0.274-0.115,0.385
		s-0.186,0.165-0.324,0.165h-1.684v3.014c0,0.14-0.071,0.25-0.214,0.33c-0.144,0.081-0.311,0.121-0.501,0.121
		c-0.198,0-0.367-0.04-0.506-0.121C35.278,40.9,35.209,40.79,35.209,40.65z"/>
</g>
</svg>
