<?xml version="1.0" encoding="utf-8"?>
<!-- Generator: Adobe Illustrator 16.0.0, SVG Export Plug-In . SVG Version: 6.00 Build 0)  -->
<!DOCTYPE svg PUBLIC "-//W3C//DTD SVG 1.1//EN" "http://www.w3.org/Graphics/SVG/1.1/DTD/svg11.dtd">
<svg version="1.1" id="Capa_1" xmlns="http://www.w3.org/2000/svg" xmlns:xlink="http://www.w3.org/1999/xlink" x="0px" y="0px"
	 width="125px" height="155px" viewBox="0 0 125 155" enable-background="new 0 0 125 155" xml:space="preserve">
<g>
	<g>
		<path fill="#FF9500" d="M83.299,7.5H7.666v140h109.668V41.534L83.299,7.5z M84.666,15.466l24.701,24.701H84.666V15.466z
			 M12.332,142.834V12.167H80v32.667h32.666v98H12.332z"/>
	</g>
</g>
<g>
	<path fill="#FF9500" d="M62.5,60.714c-14.199,0-25.75,11.551-25.75,25.75c0,14.198,11.551,25.75,25.75,25.75
		c14.198,0,25.75-11.552,25.75-25.75C88.25,72.265,76.698,60.714,62.5,60.714z M62.5,107.968c-11.857,0-21.504-9.646-21.504-21.504
		S50.643,64.959,62.5,64.959s21.504,9.647,21.504,21.504S74.357,107.968,62.5,107.968z"/>
	<polygon fill="#FF9500" points="64.727,72.424 60.273,72.424 60.273,90.339 70.316,100.382 73.465,97.233 64.727,88.495 	"/>
</g>
</svg>
