<?xml version="1.0" encoding="utf-8"?>
<!-- Generator: Adobe Illustrator 16.0.0, SVG Export Plug-In . SVG Version: 6.00 Build 0)  -->
<!DOCTYPE svg PUBLIC "-//W3C//DTD SVG 1.1//EN" "http://www.w3.org/Graphics/SVG/1.1/DTD/svg11.dtd">
<svg version="1.1" id="Capa_1" xmlns="http://www.w3.org/2000/svg" xmlns:xlink="http://www.w3.org/1999/xlink" x="0px" y="0px"
	 width="50px" height="50px" viewBox="0 0 50 50" enable-background="new 0 0 50 50" xml:space="preserve">
<g>
	<path d="M25,0C11.215,0,0,11.215,0,25s11.215,25,25,25s25-11.215,25-25S38.785,0,25,0z M25,47.366
		C12.667,47.366,2.633,37.333,2.633,25S12.667,2.633,25,2.633S47.366,12.667,47.366,25S37.333,47.366,25,47.366z"/>
	<path d="M36.842,23.683H26.316V13.632c0-0.726-0.591-1.316-1.316-1.316c-0.726,0-1.317,0.591-1.317,1.316v10.051H13.159
		c-0.727,0-1.317,0.591-1.317,1.317c0,0.726,0.591,1.316,1.317,1.316h10.524v10.999c0,0.726,0.591,1.316,1.317,1.316
		c0.726,0,1.316-0.591,1.316-1.316V26.316h10.525c0.726,0,1.316-0.591,1.316-1.316C38.158,24.274,37.567,23.683,36.842,23.683z"/>
</g>
</svg>
