<?xml version="1.0" encoding="utf-8"?>
<!-- Generator: Adobe Illustrator 16.0.0, SVG Export Plug-In . SVG Version: 6.00 Build 0)  -->
<!DOCTYPE svg PUBLIC "-//W3C//DTD SVG 1.1//EN" "http://www.w3.org/Graphics/SVG/1.1/DTD/svg11.dtd">
<svg version="1.1" id="Layer_1" xmlns="http://www.w3.org/2000/svg" xmlns:xlink="http://www.w3.org/1999/xlink" x="0px" y="0px"
	 width="50px" height="50px" viewBox="0 0 50 50" enable-background="new 0 0 50 50" xml:space="preserve">
<g>
	<g>
		<path fill="#999999" d="M24.482,0.423l-2.5,1.031c-1.337,0.551-1.97,2.092-1.418,3.419l0.643,1.551
			c-1.255,0.928-2.347,2.031-3.286,3.286l-1.551-0.643c-0.643-0.266-1.357-0.266-2,0c-0.643,0.265-1.153,0.775-1.418,1.418
			l-1.041,2.5c-0.551,1.337,0.082,2.868,1.419,3.419l2.296,0.949c0.521,0.214,1.102-0.031,1.316-0.551s-0.031-1.102-0.551-1.316
			l-2.296-0.949c-0.306-0.123-0.449-0.479-0.327-0.786l1.041-2.5c0.061-0.143,0.173-0.265,0.327-0.326
			c0.143-0.062,0.306-0.062,0.459,0l2.296,0.949c0.449,0.184,0.959,0.031,1.225-0.367c1.031-1.551,2.337-2.857,3.888-3.888
			c0.398-0.266,0.561-0.786,0.377-1.225l-0.949-2.296c-0.122-0.306,0.021-0.653,0.327-0.786l2.5-1.031
			c0.143-0.061,0.307-0.061,0.459,0c0.143,0.062,0.266,0.173,0.326,0.327l0.949,2.296c0.184,0.449,0.653,0.705,1.133,0.603
			c1.816-0.368,3.674-0.357,5.49,0c0.47,0.092,0.949-0.164,1.133-0.603l0.949-2.296c0.123-0.306,0.48-0.449,0.786-0.327l2.5,1.041
			c0.144,0.061,0.266,0.173,0.327,0.327c0.061,0.143,0.061,0.306,0,0.459l-0.949,2.296c-0.184,0.449-0.031,0.959,0.367,1.225
			c1.551,1.031,2.857,2.337,3.889,3.888c0.265,0.398,0.785,0.561,1.225,0.377l2.295-0.949c0.154-0.061,0.307-0.061,0.46,0
			c0.143,0.062,0.265,0.174,0.327,0.327l1.03,2.5c0.062,0.143,0.062,0.306,0,0.459c-0.062,0.143-0.174,0.266-0.327,0.327
			l-2.296,0.949c-0.448,0.184-0.694,0.653-0.603,1.133c0.368,1.816,0.357,3.674,0,5.49c-0.092,0.469,0.164,0.949,0.603,1.133
			l2.296,0.949c0.307,0.122,0.449,0.479,0.327,0.786l-1.041,2.5c-0.122,0.306-0.479,0.449-0.786,0.326l-2.296-0.949
			c-0.449-0.184-0.96-0.03-1.225,0.367c-1.03,1.552-2.337,2.857-3.888,3.889c-0.398,0.266-0.562,0.785-0.378,1.225l0.948,2.296
			c0.062,0.144,0.062,0.306,0,0.46c-0.061,0.143-0.173,0.265-0.326,0.326l-2.5,1.03c-0.143,0.062-0.307,0.062-0.459,0
			c-0.143-0.062-0.266-0.173-0.326-0.326l-0.949-2.296c-0.215-0.521-0.807-0.766-1.316-0.551c-0.521,0.213-0.766,0.806-0.552,1.316
			l0.949,2.295c0.265,0.644,0.775,1.154,1.419,1.419c0.326,0.133,0.663,0.204,1,0.204c0.336,0,0.684-0.071,1-0.204l2.5-1.03
			c0.643-0.266,1.153-0.775,1.418-1.419c0.266-0.643,0.266-1.356,0-2l-0.643-1.552c1.256-0.928,2.348-2.03,3.286-3.285l1.552,0.643
			c1.336,0.551,2.867-0.082,3.418-1.418l1.041-2.501c0.551-1.337-0.082-2.868-1.418-3.418l-1.552-0.643
			c0.225-1.541,0.225-3.103,0-4.644l1.552-0.643c0.643-0.266,1.152-0.776,1.418-1.418c0.266-0.643,0.266-1.357,0-2l-1.03-2.5
			c-0.266-0.643-0.776-1.153-1.419-1.418c-0.643-0.266-1.357-0.266-2,0L43.801,9.72c-0.93-1.255-2.031-2.357-3.276-3.286
			l0.644-1.551c0.265-0.643,0.265-1.357,0-2c-0.266-0.643-0.775-1.153-1.419-1.418l-2.501-1.041
			c-1.336-0.551-2.867,0.082-3.418,1.418l-0.643,1.551c-1.541-0.224-3.104-0.224-4.644,0L27.9,1.842
			c-0.266-0.643-0.775-1.153-1.418-1.418C25.84,0.158,25.125,0.158,24.482,0.423z"/>
		<path fill="#999999" d="M39.075,19.313c-0.03-4.51-3.714-8.154-8.215-8.154c-0.021,0-0.041,0-0.062,0
			c-2.193,0.021-4.256,0.888-5.796,2.449c-1.541,1.562-2.377,3.633-2.368,5.827c0,0.551,0.459,1,1.011,1h0.01
			c0.562,0,1.011-0.459,1-1.021c-0.01-1.653,0.623-3.214,1.786-4.398c1.164-1.184,2.715-1.837,4.367-1.847c0.011,0,0.031,0,0.041,0
			c3.398,0,6.175,2.755,6.195,6.153c0.02,3.419-2.735,6.215-6.154,6.245c-0.561,0-1.01,0.46-1,1.021c0,0.551,0.459,1,1.01,1
			c0,0,0,0,0.011,0C35.453,27.559,39.105,23.844,39.075,19.313z"/>
		<path fill="#999999" d="M13.808,49.775h1.97c1.204,0,2.184-0.979,2.184-2.184v-1.011c0.98-0.265,1.918-0.653,2.796-1.163
			l0.714,0.715c0.408,0.408,0.959,0.643,1.541,0.643c0.582,0,1.133-0.225,1.541-0.643l1.388-1.389
			c0.408-0.408,0.643-0.959,0.643-1.541s-0.225-1.133-0.643-1.541l-0.714-0.714c0.51-0.878,0.898-1.817,1.164-2.796h1.01
			c1.205,0,2.184-0.98,2.184-2.185v-1.97c0-1.204-0.979-2.184-2.184-2.184h-1.01c-0.266-0.979-0.653-1.918-1.164-2.797l0.714-0.714
			c0.408-0.408,0.643-0.959,0.643-1.541c0-0.581-0.225-1.132-0.643-1.541l-1.388-1.388c-0.408-0.408-0.959-0.643-1.541-0.643
			c-0.582,0-1.133,0.225-1.541,0.643l-0.714,0.714c-0.878-0.51-1.816-0.898-2.796-1.163v-1.011c0-1.204-0.979-2.184-2.184-2.184
			h-1.97c-1.204,0-2.184,0.979-2.184,2.184v1.011c-0.979,0.265-1.918,0.653-2.796,1.163l-0.714-0.714
			c-0.408-0.408-0.959-0.643-1.541-0.643c-0.582,0-1.133,0.225-1.541,0.643l-1.388,1.388c-0.847,0.846-0.847,2.235,0,3.082
			l0.714,0.714c-0.51,0.879-0.898,1.817-1.163,2.797h-1.01C0.979,31.814,0,32.794,0,33.998v1.97c0,1.204,0.979,2.185,2.184,2.185
			h1.01c0.265,0.979,0.653,1.918,1.163,2.796l-0.714,0.714c-0.847,0.848-0.847,2.235,0,3.082l1.388,1.389
			c0.408,0.408,0.959,0.643,1.541,0.643c0.582,0,1.133-0.225,1.541-0.643l0.714-0.715c0.877,0.51,1.816,0.898,2.796,1.163v1.011
			C11.634,48.796,12.613,49.775,13.808,49.775z M9.246,43.306c-0.174-0.112-0.368-0.174-0.562-0.174
			c-0.265,0-0.521,0.103-0.714,0.296l-1.276,1.275c-0.041,0.041-0.082,0.051-0.112,0.051c-0.031,0-0.072-0.01-0.112-0.051
			l-1.388-1.388c-0.061-0.062-0.061-0.163,0-0.224l1.276-1.276c0.336-0.337,0.398-0.878,0.123-1.275
			c-0.735-1.093-1.235-2.307-1.49-3.593C4.898,36.479,4.48,36.131,4,36.131H2.194c-0.092,0-0.164-0.071-0.164-0.163v-1.97
			c0-0.092,0.071-0.163,0.164-0.163H4c0.479,0,0.898-0.337,0.99-0.816c0.255-1.286,0.755-2.5,1.49-3.593
			c0.265-0.397,0.214-0.938-0.123-1.275l-1.276-1.275c-0.061-0.061-0.061-0.163,0-0.225l1.388-1.388
			c0.041-0.041,0.082-0.051,0.112-0.051c0.03,0,0.071,0.01,0.112,0.051l1.276,1.296c0.337,0.337,0.877,0.398,1.276,0.123
			c1.092-0.735,2.306-1.235,3.592-1.49c0.47-0.092,0.816-0.51,0.816-0.99v-1.807c0-0.092,0.072-0.163,0.164-0.163h1.969
			c0.092,0,0.164,0.071,0.164,0.163v1.807c0,0.479,0.337,0.898,0.816,0.99c1.286,0.255,2.5,0.755,3.592,1.49
			c0.398,0.266,0.938,0.214,1.275-0.123l1.276-1.275c0.041-0.041,0.082-0.051,0.112-0.051c0.03,0,0.071,0.01,0.112,0.051
			l1.388,1.388c0.041,0.041,0.051,0.082,0.051,0.112c0,0.031-0.01,0.072-0.051,0.112l-1.276,1.276
			c-0.336,0.336-0.398,0.877-0.122,1.275c0.734,1.092,1.234,2.307,1.49,3.592c0.092,0.469,0.51,0.816,0.99,0.816h1.807
			c0.092,0,0.163,0.071,0.163,0.163v1.97c0,0.092-0.071,0.164-0.163,0.164h-1.807c-0.479,0-0.898,0.336-0.99,0.816
			c-0.255,1.285-0.755,2.5-1.49,3.592c-0.266,0.397-0.214,0.938,0.122,1.275l1.276,1.275c0.041,0.041,0.051,0.082,0.051,0.112
			s-0.01,0.071-0.051,0.112l-1.388,1.389c-0.041,0.04-0.082,0.051-0.112,0.051c-0.031,0-0.072-0.011-0.112-0.051l-1.276-1.276
			c-0.337-0.337-0.877-0.397-1.275-0.122c-1.092,0.734-2.307,1.234-3.592,1.49c-0.47,0.092-0.816,0.51-0.816,0.989v1.806
			c0,0.093-0.071,0.164-0.164,0.164h-1.969c-0.092,0-0.164-0.071-0.164-0.164v-1.806c0-0.479-0.336-0.897-0.816-0.989
			C11.552,44.54,10.338,44.04,9.246,43.306z"/>
		<path fill="#999999" d="M20.788,34.998c0-3.307-2.694-6-6.001-6c-3.306,0-5.99,2.693-5.99,6s2.694,6.001,6,6.001
			C18.104,40.999,20.788,38.305,20.788,34.998z M10.817,34.998c0-2.193,1.786-3.979,3.98-3.979c2.194,0,3.98,1.786,3.98,3.979
			c0,2.194-1.786,3.98-3.98,3.98C12.604,38.979,10.817,37.183,10.817,34.998z"/>
	</g>
</g>
</svg>
