<?xml version="1.0" encoding="utf-8"?>
<!-- Generator: Adobe Illustrator 16.0.0, SVG Export Plug-In . SVG Version: 6.00 Build 0)  -->
<!DOCTYPE svg PUBLIC "-//W3C//DTD SVG 1.1//EN" "http://www.w3.org/Graphics/SVG/1.1/DTD/svg11.dtd">
<svg version="1.1" id="Capa_1" xmlns="http://www.w3.org/2000/svg" xmlns:xlink="http://www.w3.org/1999/xlink" x="0px" y="0px"
	 width="1500px" height="1500px" viewBox="0 0 1500 1500" enable-background="new 0 0 1500 1500" xml:space="preserve">
<g>
	<g>
		<path fill="#666666" d="M1297.289,692.867c43.926-30.867,73.012-82.212,73.012-140.087c0-94.678-76.573-171.251-171.25-171.251
			c-94.678,0-171.251,76.573-171.251,171.251c0,57.875,28.789,109.22,73.012,140.087c-37.693,13.059-72.121,33.241-101.207,59.358
			c-40.067-34.131-87.258-60.249-138.9-75.683C923.328,638.554,965.473,569.4,965.473,490.75
			c0-119.905-97.052-216.957-216.957-216.957c-119.904,0-216.957,97.349-216.957,216.957c0,78.65,41.849,147.804,104.77,185.793
			c-51.049,15.434-97.646,41.255-137.416,74.793c-29.086-25.524-62.921-45.41-100.021-58.172
			c43.926-30.867,73.012-82.212,73.012-140.087c0-94.678-76.573-171.251-171.25-171.251s-171.25,76.573-171.25,171.251
			c0,57.875,28.789,109.22,73.012,140.087C84.586,733.824,0,845.717,0,977.196v19.589c0,0.594,0.594,1.187,1.187,1.187h362.98
			c-2.077,16.324-3.265,33.241-3.265,50.158v20.183c0,87.258,70.637,157.895,157.895,157.895h460.031
			c87.258,0,157.896-70.637,157.896-157.895v-20.183c0-16.917-1.188-33.834-3.265-50.158h365.354c0.594,0,1.188-0.594,1.188-1.187
			v-19.589C1499.406,845.42,1415.117,733.528,1297.289,692.867z M1075.287,552.483c0-68.263,55.5-123.764,123.764-123.764
			c68.263,0,123.763,55.501,123.763,123.764c0,67.372-54.313,122.279-121.389,123.763c-0.891,0-1.484,0-2.374,0
			c-0.891,0-1.484,0-2.375,0C1129.304,675.06,1075.287,620.152,1075.287,552.483z M578.453,490.75
			c0-93.49,75.979-169.47,169.47-169.47c93.49,0,169.47,75.979,169.47,169.47c0,90.226-70.935,164.127-159.676,169.173
			c-3.265,0-6.529,0-9.794,0s-6.53,0-9.795,0C649.387,654.877,578.453,580.976,578.453,490.75z M175.999,552.483
			c0-68.263,55.501-123.764,123.764-123.764s123.764,55.501,123.764,123.764c0,67.372-54.313,122.279-121.39,123.763
			c-0.89,0-1.484,0-2.374,0c-0.891,0-1.484,0-2.375,0C230.312,675.06,175.999,620.152,175.999,552.483z M372.478,950.188H48.081
			c13.356-126.434,120.202-225.563,249.901-226.454c0.593,0,1.187,0,1.781,0c0.593,0,1.187,0,1.781,0
			c61.733,0.297,118.125,23.15,161.753,60.25C420.558,830.283,388.801,887.268,372.478,950.188z M1088.643,1068.312
			c0,60.843-49.564,110.407-110.407,110.407H518.203c-60.843,0-110.407-49.564-110.407-110.407v-20.183
			c0-184.31,147.21-335.081,330.332-340.423c3.265,0.297,6.826,0.297,10.091,0.297c3.266,0,6.826,0,10.092-0.297
			c183.122,5.342,330.332,156.113,330.332,340.423V1068.312z M1123.961,950.188c-16.323-62.623-47.486-118.718-89.929-165.018
			c43.926-37.989,100.91-60.843,163.237-61.437c0.594,0,1.188,0,1.781,0s1.187,0,1.78,0
			c129.699,0.891,236.546,100.021,249.901,226.454H1123.961z"/>
	</g>
</g>
</svg>
