<?xml version="1.0" encoding="utf-8"?>
<!-- Generator: Adobe Illustrator 16.0.0, SVG Export Plug-In . SVG Version: 6.00 Build 0)  -->
<!DOCTYPE svg PUBLIC "-//W3C//DTD SVG 1.1//EN" "http://www.w3.org/Graphics/SVG/1.1/DTD/svg11.dtd">
<svg version="1.1" id="Capa_1" xmlns="http://www.w3.org/2000/svg" xmlns:xlink="http://www.w3.org/1999/xlink" x="0px" y="0px"
	 width="1500px" height="1500px" viewBox="0 0 1500 1500" enable-background="new 0 0 1500 1500" xml:space="preserve">
<path fill="#1E201D" d="M363.636,390.274c-15.966,15.967-15.966,41.104,0,57.07c15.428,15.967,41.104,15.967,56.495,0
	l289.377-288.838v954.366c0,22.26,17.692,40.527,39.952,40.527s40.528-18.268,40.528-40.527V158.506l288.802,288.838
	c15.967,15.967,41.679,15.967,57.069,0c15.967-15.967,15.967-41.104,0-57.07L777.977,32.391c-15.427-15.427-41.103-15.427-57.069,0
	L363.636,390.274z M1419.52,1045.958c0-22.26,17.692-39.952,39.952-39.952s40.528,17.692,40.528,39.952v392.692
	c0,22.26-18.269,40.528-40.528,40.528H39.953C17.693,1479.179,0,1460.91,0,1438.65v-392.692c0-22.26,17.693-39.952,39.953-39.952
	s40.528,17.692,40.528,39.952v352.74H1419.52V1045.958z"/>
</svg>
